<svg width="140" height="30" viewBox="0 0 140 30" fill="none" xmlns="http://www.w3.org/2000/svg">
<path d="M22.419 13.371C22.04 13.7523 21.7498 14.2124 21.569 14.7187C21.3882 15.225 21.3213 15.7649 21.373 16.3L21.355 16.282C21.4082 16.9118 21.3232 17.5457 21.1061 18.1393C20.889 18.733 20.545 19.2721 20.0981 19.7191C19.6511 20.166 19.112 20.51 18.5183 20.7271C17.9247 20.9442 17.2908 21.0292 16.661 20.976L16.679 20.994C15.9256 20.9239 15.1689 21.0878 14.512 21.4635C13.8552 21.8392 13.3302 22.4083 13.0087 23.0933C12.6872 23.7783 12.5847 24.5457 12.7153 25.291C12.846 26.0364 13.2033 26.7233 13.7386 27.2581C14.2739 27.7929 14.9611 28.1496 15.7065 28.2795C16.452 28.4095 17.2193 28.3063 17.904 27.9842C18.5887 27.662 19.1573 27.1365 19.5324 26.4794C19.9075 25.8222 20.0708 25.0653 20 24.312L20.019 24.33C19.9658 23.7001 20.0507 23.0663 20.2678 22.4726C20.4849 21.879 20.829 21.3399 21.2759 20.8929C21.7229 20.446 22.262 20.1019 22.8556 19.8848C23.4493 19.6677 24.0831 19.5828 24.713 19.636L24.694 19.618C25.3098 19.6737 25.9296 19.5731 26.4961 19.3254C27.0626 19.0777 27.5574 18.6909 27.9346 18.201C28.3118 17.7111 28.5591 17.1339 28.6538 16.5229C28.7484 15.9119 28.6872 15.2869 28.4759 14.7059C28.2645 14.1248 27.9099 13.6066 27.4449 13.1991C26.9799 12.7916 26.4195 12.5082 25.8157 12.3751C25.2119 12.2419 24.5843 12.2634 23.991 12.4375C23.3978 12.6116 22.8581 12.9327 22.422 13.371H22.419Z" fill="#394149"/>
<path d="M15.042 18.636L15.023 18.618C15.5583 18.6718 16.0988 18.6059 16.6056 18.4253C17.1123 18.2446 17.5726 17.9536 17.9531 17.5734C18.3337 17.1931 18.625 16.733 18.8061 16.2264C18.9871 15.7198 19.0534 15.1793 19 14.644L19.019 14.662C18.966 14.0322 19.0511 13.3984 19.2682 12.8048C19.4854 12.2113 19.8294 11.6722 20.2763 11.2253C20.7232 10.7784 21.2623 10.4344 21.8558 10.2172C22.4494 10.0001 23.0832 9.91501 23.713 9.968L23.694 9.95C24.4475 10.0208 25.2044 9.85736 25.8617 9.4821C26.5189 9.10684 27.0443 8.53798 27.3663 7.85311C27.6883 7.16824 27.7913 6.40071 27.661 5.6552C27.5308 4.90969 27.1738 4.22251 26.6386 3.68737C26.1035 3.15224 25.4163 2.7952 24.6708 2.66498C23.9253 2.53475 23.1578 2.63766 22.4729 2.95968C21.788 3.2817 21.2192 3.80714 20.8439 4.46435C20.4686 5.12155 20.3052 5.87852 20.376 6.632L20.358 6.613C20.4112 7.24285 20.3262 7.87672 20.1091 8.47036C19.8921 9.064 19.548 9.60311 19.1011 10.0501C18.6541 10.497 18.115 10.8411 17.5214 11.0581C16.9277 11.2752 16.2939 11.3602 15.664 11.307L15.682 11.326C15.1467 11.2722 14.6062 11.3381 14.0994 11.5187C13.5927 11.6994 13.1324 11.9904 12.7519 12.3706C12.3713 12.7509 12.08 13.211 11.8989 13.7176C11.7179 14.2242 11.6517 14.7647 11.705 15.3L11.687 15.282C11.7398 15.9118 11.6546 16.5455 11.4374 17.139C11.2202 17.7324 10.8762 18.2714 10.4293 18.7183C9.98241 19.1652 9.44345 19.5092 8.84997 19.7264C8.25649 19.9436 7.62277 20.0288 6.993 19.976L7.011 19.994C6.25778 19.9234 5.50112 20.0869 4.84422 20.4622C4.18732 20.8374 3.66215 21.4061 3.34033 22.0908C3.0185 22.7754 2.91569 23.5427 3.04592 24.2879C3.17614 25.0331 3.53306 25.7201 4.068 26.255C4.60294 26.7899 5.28986 27.1469 6.03509 27.2771C6.78032 27.4073 7.54757 27.3045 8.23223 26.9827C8.91688 26.6608 9.48561 26.1357 9.86084 25.4788C10.2361 24.8219 10.3996 24.0652 10.329 23.312L10.348 23.33C10.2948 22.7001 10.3798 22.0663 10.5969 21.4726C10.8139 20.879 11.158 20.3399 11.6049 19.8929C12.0519 19.446 12.591 19.1019 13.1846 18.8849C13.7783 18.6678 14.4121 18.5828 15.042 18.636Z" fill="#394149"/>
<path d="M8.33999 16.629C8.71901 16.2478 9.0092 15.7876 9.18984 15.2813C9.37048 14.775 9.43712 14.235 9.38499 13.7L9.40399 13.718C9.35079 13.088 9.43575 12.4539 9.65296 11.8601C9.87017 11.2663 10.2144 10.7271 10.6616 10.2801C11.1087 9.83312 11.6481 9.48913 12.242 9.27218C12.8359 9.05522 13.47 8.97053 14.1 9.024L14.081 9.006C14.8342 9.07657 15.5909 8.91308 16.2478 8.53785C16.9047 8.16261 17.4298 7.59388 17.7517 6.90923C18.0735 6.22458 18.1763 5.45732 18.0461 4.71209C17.9159 3.96686 17.5589 3.27994 17.024 2.745C16.4891 2.21006 15.8021 1.85314 15.0569 1.72292C14.3117 1.59269 13.5444 1.6955 12.8598 2.01733C12.1751 2.33915 11.6064 2.86432 11.2312 3.52122C10.8559 4.17813 10.6924 4.93478 10.763 5.688L10.745 5.67C10.7983 6.29989 10.7135 6.93384 10.4965 7.52756C10.2795 8.12128 9.93544 8.66046 9.48845 9.10746C9.04146 9.55445 8.50227 9.89848 7.90855 10.1155C7.31483 10.3325 6.68088 10.4173 6.05099 10.364L6.06899 10.382C5.45356 10.3268 4.83416 10.4279 4.26818 10.6758C3.7022 10.9237 3.20795 11.3105 2.83124 11.8003C2.45453 12.29 2.20755 12.867 2.11317 13.4776C2.0188 14.0883 2.08009 14.7129 2.29136 15.2935C2.50263 15.8742 2.85706 16.3921 3.32179 16.7993C3.78652 17.2066 4.34652 17.4899 4.9499 17.6231C5.55327 17.7562 6.1805 17.7349 6.77347 17.5612C7.36643 17.3874 7.90593 17.0668 8.34199 16.629H8.33999Z" fill="#394149"/>
<path d="M39.317 6.65503H42.287V21.108H39.317V6.65503ZM43.969 16.159C43.9647 15.1201 44.2688 14.1033 44.8428 13.2373C45.4169 12.3714 46.235 11.6953 47.1936 11.2948C48.1522 10.8942 49.2082 10.7872 50.2277 10.9873C51.2471 11.1874 52.1843 11.6855 52.9204 12.4187C53.6565 13.1519 54.1585 14.087 54.3626 15.1057C54.5668 16.1244 54.464 17.1807 54.0673 18.1409C53.6706 19.1011 52.9978 19.922 52.1342 20.4995C51.2706 21.077 50.2549 21.3852 49.216 21.385C48.5265 21.393 47.8424 21.2635 47.2035 21.0039C46.5647 20.7444 45.984 20.3601 45.4955 19.8735C45.0069 19.3869 44.6203 18.8078 44.3582 18.17C44.0961 17.5322 43.9638 16.8485 43.969 16.159ZM51.493 16.159C51.4808 15.711 51.3368 15.2766 51.079 14.91C50.8212 14.5434 50.4611 14.261 50.0436 14.098C49.6261 13.9351 49.1699 13.8988 48.7319 13.9938C48.2939 14.0888 47.8937 14.3108 47.5812 14.632C47.2687 14.9533 47.0579 15.3595 46.9751 15.8C46.8923 16.2404 46.9412 16.6955 47.1157 17.1083C47.2901 17.5211 47.5824 17.8733 47.956 18.1208C48.3296 18.3683 48.7679 18.5003 49.216 18.5C49.5227 18.5082 49.8278 18.4528 50.1121 18.3372C50.3963 18.2216 50.6535 18.0483 50.8674 17.8284C51.0813 17.6084 51.2474 17.3466 51.355 17.0592C51.4627 16.7719 51.5097 16.4654 51.493 16.159ZM66.3 11.209V20.609C66.3 23.935 63.706 25.341 61.073 25.341C60.146 25.4103 59.2178 25.223 58.3901 24.7996C57.5625 24.3763 56.8674 23.7333 56.381 22.941L58.915 21.476C59.1195 21.8889 59.4452 22.2296 59.8485 22.4524C60.2519 22.6753 60.7136 22.7697 61.172 22.723C61.465 22.7636 61.7634 22.7378 62.0451 22.6475C62.3267 22.5572 62.5845 22.4048 62.7993 22.2014C63.0141 21.998 63.1804 21.749 63.286 21.4727C63.3915 21.1963 63.4336 20.8998 63.409 20.605V19.7C63.0612 20.1256 62.6186 20.4637 62.1165 20.6872C61.6144 20.9107 61.067 21.0134 60.518 20.987C59.2056 20.955 57.9578 20.4111 57.0409 19.4716C56.1241 18.532 55.6108 17.2713 55.6108 15.9585C55.6108 14.6458 56.1241 13.385 57.0409 12.4455C57.9578 11.5059 59.2056 10.9621 60.518 10.93C61.0669 10.9038 61.6144 11.0065 62.1164 11.23C62.6185 11.4535 63.0612 11.7916 63.409 12.217V11.207L66.3 11.209ZM63.41 15.96C63.43 15.4814 63.3062 15.0077 63.0547 14.6C62.8032 14.1923 62.4354 13.8691 61.9987 13.6722C61.562 13.4753 61.0764 13.4135 60.6043 13.4949C60.1322 13.5763 59.6953 13.7972 59.3497 14.129C59.0042 14.4608 58.7659 14.8885 58.6654 15.3569C58.565 15.8253 58.607 16.313 58.7862 16.7573C58.9653 17.2017 59.2733 17.5822 59.6705 17.85C60.0677 18.1178 60.536 18.2606 61.015 18.26C61.3271 18.2818 61.6402 18.238 61.9343 18.1314C62.2284 18.0248 62.4969 17.8578 62.7225 17.6411C62.9481 17.4244 63.1259 17.1629 63.2443 16.8734C63.3627 16.5838 63.4192 16.2727 63.41 15.96ZM67.982 16.159C67.9779 15.1204 68.282 14.1039 68.8561 13.2383C69.4301 12.3726 70.2481 11.6968 71.2065 11.2965C72.1649 10.8961 73.2205 10.7892 74.2397 10.9893C75.2589 11.1894 76.1958 11.6874 76.9317 12.4204C77.6676 13.1534 78.1694 14.0883 78.3736 15.1066C78.5778 16.125 78.4751 17.1811 78.0786 18.1411C77.6821 19.1011 77.0096 19.9218 76.1463 20.4993C75.2829 21.0768 74.2677 21.385 73.229 21.385C72.5395 21.393 71.8554 21.2635 71.2165 21.0039C70.5777 20.7444 69.997 20.3601 69.5085 19.8735C69.0199 19.3869 68.6333 18.8078 68.3712 18.17C68.1091 17.5322 67.9768 16.8485 67.982 16.159ZM75.506 16.159C75.4938 15.711 75.3498 15.2766 75.092 14.91C74.8342 14.5434 74.4741 14.261 74.0566 14.098C73.6391 13.9351 73.1829 13.8988 72.7449 13.9938C72.3069 14.0888 71.9067 14.3108 71.5942 14.632C71.2817 14.9533 71.0709 15.3595 70.9881 15.8C70.9053 16.2404 70.9542 16.6955 71.1287 17.1083C71.3031 17.5211 71.5954 17.8733 71.969 18.1208C72.3426 18.3683 72.7809 18.5003 73.229 18.5C73.5358 18.5084 73.8409 18.453 74.1252 18.3375C74.4095 18.2219 74.6668 18.0487 74.8807 17.8287C75.0947 17.6087 75.2607 17.3468 75.3684 17.0594C75.476 16.772 75.5229 16.4654 75.506 16.159ZM79.861 8.55603C79.861 8.20358 79.9655 7.85905 80.1613 7.566C80.3571 7.27295 80.6355 7.04455 80.9611 6.90968C81.2867 6.7748 81.645 6.73951 81.9907 6.80827C82.3363 6.87703 82.6539 7.04675 82.9031 7.29596C83.1523 7.54518 83.322 7.8627 83.3908 8.20838C83.4595 8.55405 83.4242 8.91235 83.2894 9.23797C83.1545 9.56359 82.9261 9.8419 82.633 10.0377C82.34 10.2335 81.9955 10.338 81.643 10.338C81.1719 10.3333 80.7213 10.1441 80.3881 9.81091C80.055 9.47773 79.8657 9.02719 79.861 8.55603ZM80.161 11.209H83.132V21.109H80.157L80.161 11.209ZM95.956 16.159C95.9905 16.8133 95.8952 17.468 95.6757 18.0854C95.4562 18.7027 95.1168 19.2706 94.677 19.7563C94.2372 20.242 93.7058 20.6359 93.1132 20.9154C92.5205 21.195 91.8785 21.3546 91.224 21.385C90.6736 21.415 90.1235 21.3221 89.6134 21.1132C89.1034 20.9043 88.6462 20.5845 88.275 20.177V25.068H85.305V11.209H88.275V12.139C88.6463 11.7318 89.1036 11.4123 89.6136 11.2035C90.1237 10.9947 90.6737 10.902 91.224 10.932C91.8786 10.9625 92.5207 11.1221 93.1134 11.4017C93.7061 11.6813 94.2376 12.0753 94.6774 12.5611C95.1172 13.0469 95.4566 13.6149 95.676 14.2324C95.8954 14.8499 95.9906 15.5046 95.956 16.159ZM92.986 16.159C92.9744 15.6957 92.8264 15.2461 92.5605 14.8665C92.2946 14.4868 91.9227 14.1941 91.4913 14.0248C91.0598 13.8555 90.588 13.8173 90.1349 13.9148C89.6818 14.0123 89.2676 14.2414 88.944 14.5732C88.6204 14.905 88.4019 15.3249 88.3158 15.7803C88.2297 16.2357 88.2798 16.7064 88.4599 17.1334C88.6399 17.5605 88.942 17.9249 89.3282 18.1812C89.7144 18.4374 90.1675 18.5741 90.631 18.574C90.9492 18.5882 91.2668 18.5349 91.563 18.4178C91.8591 18.3006 92.1272 18.1221 92.3495 17.8941C92.5719 17.6661 92.7435 17.3936 92.8532 17.0946C92.9629 16.7956 93.0082 16.4768 92.986 16.159ZM105.121 18.138C105.121 20.415 103.142 21.385 101.004 21.385C100.14 21.4634 99.2727 21.2808 98.5137 20.8608C97.7548 20.4407 97.1393 19.8026 96.747 19.029L99.32 17.564C99.4241 17.9216 99.6477 18.2326 99.9534 18.4452C100.259 18.6577 100.629 18.759 101 18.732C101.712 18.732 102.069 18.514 102.069 18.119C102.069 17.029 97.198 17.604 97.198 14.179C97.198 12.02 99.02 10.932 101.079 10.932C101.853 10.9074 102.62 11.091 103.298 11.4635C103.977 11.836 104.544 12.3839 104.939 13.05L102.405 14.416C102.294 14.1566 102.109 13.9355 101.873 13.7806C101.637 13.6257 101.361 13.5438 101.079 13.545C100.564 13.545 100.247 13.745 100.247 14.099C100.251 15.228 105.121 14.475 105.121 18.138ZM115.97 11.209V21.109H113V20.178C112.657 20.5886 112.222 20.9121 111.73 21.1221C111.238 21.332 110.704 21.4225 110.17 21.386C108.17 21.386 106.47 19.961 106.47 17.286V11.209H109.44V16.851C109.415 17.087 109.441 17.3257 109.518 17.5503C109.595 17.7749 109.72 17.9799 109.884 18.151C110.048 18.3222 110.247 18.4556 110.468 18.542C110.689 18.6283 110.925 18.6655 111.162 18.651C112.251 18.651 113.003 18.018 113.003 16.612V11.212L115.97 11.209ZM133 15.03V21.108H130.03V15.287C130.03 14.297 129.555 13.664 128.605 13.664C127.615 13.664 127.06 14.357 127.06 15.525V21.108H124.091V15.287C124.091 14.297 123.616 13.664 122.665 13.664C121.675 13.664 121.121 14.357 121.121 15.525V21.108H118.151V11.208H121.121V12.118C121.429 11.7145 121.833 11.3945 122.297 11.1872C122.76 10.9799 123.268 10.8918 123.774 10.931C124.282 10.9065 124.788 11.0138 125.242 11.2427C125.697 11.4715 126.084 11.8141 126.367 12.237C126.696 11.7943 127.132 11.4422 127.634 11.2138C128.136 10.9854 128.688 10.8881 129.238 10.931C131.511 10.932 133 12.555 133 15.03ZM135.512 11.148C136.097 11.148 136.657 10.9158 137.07 10.5025C137.484 10.0892 137.716 9.52857 137.716 8.94403C137.716 8.35949 137.484 7.7989 137.07 7.38557C136.657 6.97224 136.097 6.74003 135.512 6.74003C134.927 6.74003 134.367 6.97224 133.954 7.38557C133.54 7.7989 133.308 8.35949 133.308 8.94403C133.308 9.52857 133.54 10.0892 133.954 10.5025C134.367 10.9158 134.927 11.148 135.512 11.148Z" fill="#394149"/>
</svg>
