<svg width="175" height="40" viewBox="0 0 175 40" fill="none" xmlns="http://www.w3.org/2000/svg">
<g clip-path="url(#clip0_13_106)">
<path d="M170.394 7.66399L174.568 11.867C174.714 11.9828 174.822 12.1395 174.878 12.317C174.963 13.351 174.18 13.408 173.38 13.466C173.034 13.491 172.685 13.516 172.402 13.621C170.999 14.0001 169.746 14.8023 168.814 15.9184C167.883 17.0344 167.317 18.4103 167.195 19.859C167.105 20.0265 166.969 20.1645 166.803 20.256C166.636 20.3476 166.447 20.389 166.257 20.375C166.037 20.3555 165.831 20.2592 165.675 20.103L164.305 18.723C164.315 18.818 164.315 18.912 164.315 18.987V19.897C164.315 19.954 164.317 20.01 164.31 20.065C164.301 20.1335 164.273 20.1984 164.231 20.253V20.338C164.231 20.381 164.236 20.421 164.241 20.462C164.251 20.545 164.262 20.631 164.231 20.75C164.201 20.862 164.198 20.992 164.194 21.109C164.193 21.178 164.191 21.242 164.184 21.294C164.174 21.367 164.174 21.444 164.168 21.522C164.164 21.5954 164.147 21.6676 164.118 21.735C164.078 21.8228 164.057 21.9177 164.055 22.014C164.052 22.058 164.052 22.103 164.052 22.148L163.996 22.439L161.867 32.589L161.698 33.349L161.632 34.456L160.694 39.249L160.544 40H84.624L84.259 39.634L84.193 39.954H76.07L71.549 35.404L71.98 33.349H69.429L67.843 31.745C65.8756 33.1776 63.4943 33.9286 61.061 33.884C58.4451 33.9868 55.895 33.0491 53.969 31.276L51.502 28.79L50.967 31.285C50.902 31.642 50.817 31.979 50.723 32.308L50.639 32.618L50.499 33.068C50.487 33.1069 50.4709 33.1445 50.451 33.18C50.311 33.594 50.146 33.998 49.954 34.39C49.959 34.4052 49.959 34.4217 49.954 34.437C49.9296 34.4889 49.9015 34.539 49.87 34.587C49.728 34.867 49.572 35.14 49.4 35.403C49.369 35.451 49.34 35.502 49.316 35.553L49.213 35.666C48.983 35.995 48.733 36.308 48.463 36.604C48.3901 36.6765 48.3154 36.7472 48.239 36.816C48.162 36.886 48.084 36.956 48.003 37.026L47.796 37.223C47.559 37.4202 47.312 37.6052 47.056 37.777C45.1224 38.9224 42.892 39.4675 40.648 39.343C37.553 39.343 35.076 38.443 33.509 36.867L29.1 32.43C27.339 33.4264 25.3452 33.9378 23.322 33.912C20.7138 33.9926 18.1789 33.0419 16.267 31.266L13.8 28.781L13.003 32.617L12.843 33.377H4.54L0 28.8L0.235 27.693L5.225 3.72499L5.375 2.97499H13.705L13.921 3.18099V2.97499H70.047L70.253 3.18099V2.97499H78.377L82.917 7.55299L82.692 8.64999L82.448 9.84999H84.784L85.15 10.217C86.178 9.61457 87.3456 9.29122 88.537 9.27899C89.413 9.26168 90.2828 9.42804 91.0906 9.76733C91.8984 10.1066 92.6261 10.6114 93.227 11.249L93.105 11.108L95.309 13.331C96.651 10.808 99.662 9.27899 103.752 9.27899C106.923 9.27899 109.259 10.085 110.675 11.549L112.27 13.153L112.805 10.573L112.964 9.82299H121.097L123.424 12.159L123.752 10.583L123.912 9.83299H139.916L140.347 10.263C141.431 9.62366 142.672 9.29919 143.931 9.32599C144.688 9.29651 145.443 9.4351 146.14 9.7318C146.837 10.0285 147.46 10.4759 147.964 11.042L147.888 10.954C147.844 10.9004 147.798 10.8487 147.75 10.799L148.565 11.615C149.275 10.8795 150.128 10.297 151.072 9.9032C152.016 9.5094 153.03 9.31263 154.052 9.32499C154.593 9.29176 155.135 9.33757 155.663 9.46099L154.775 8.56599C154.684 8.46933 154.615 8.35452 154.572 8.22914C154.529 8.10376 154.513 7.97068 154.526 7.83871C154.538 7.70673 154.578 7.57887 154.643 7.46359C154.709 7.34831 154.798 7.24823 154.905 7.16999C155.048 7.06501 155.217 7.0026 155.394 6.98999H156.107C156.299 6.97099 156.49 6.94299 156.679 6.90499C157.676 6.69572 158.614 6.26739 159.426 5.651C160.237 5.03461 160.901 4.24557 161.37 3.34099C161.411 3.27087 161.448 3.19878 161.482 3.12499V3.07799C161.805 2.38306 162.002 1.63656 162.064 0.872986C162.08 0.635653 162.186 0.413418 162.361 0.251446C162.535 0.0894748 162.764 -7.89464e-05 163.002 0.000985952H163.077C163.219 0.0147099 163.357 0.0607542 163.479 0.135615C163.601 0.210475 163.704 0.312179 163.781 0.432986C164.456 1.08899 168.208 4.90699 168.208 4.90699C168.521 5.24299 168.498 5.67999 168.474 6.12099C168.459 6.39499 168.444 6.66999 168.508 6.92399C168.843 6.98376 169.182 7.0152 169.522 7.01799C169.717 7.02194 169.905 7.08636 170.061 7.2023C170.218 7.31824 170.334 7.47895 170.394 7.66399Z" fill="black"/>
<path d="M42.936 10.75H48.865L45.544 26.5C44.934 29.484 43.771 31.191 42.007 32.401C40.2236 33.4362 38.1758 33.9257 36.117 33.809C32.195 33.809 28.433 32.167 28.058 28.18H34.024C34.212 29.118 35.075 29.653 36.388 29.653C38.161 29.653 38.978 28.583 39.343 26.904L39.7 25.169H39.568C39.0445 25.7444 38.4096 26.2075 37.7017 26.53C36.9938 26.8524 36.2277 27.0277 35.45 27.045C31.998 27.045 29.259 24.296 29.315 20.272C29.39 15.582 32.448 10.253 37.58 10.253C38.5523 10.188 39.5229 10.4027 40.377 10.8717C41.2312 11.3408 41.9332 12.0446 42.4 12.9H42.504L42.935 10.752L42.936 10.75ZM37.842 22.645C40.122 22.645 41.388 20.019 41.426 17.758C41.426 16.248 40.835 14.7 39.09 14.7C36.707 14.7 35.497 17.355 35.46 19.634C35.46 21.173 36.05 22.645 37.795 22.645M104.4 23.152C104.4 24.156 103.536 24.559 102.401 24.559C100.525 24.559 99.897 23.621 99.887 22.308H93.987C93.884 27.204 98.255 28.415 102.139 28.415C107.101 28.415 110.319 26.266 110.385 21.979C110.385 18.555 107.467 17.514 104.597 16.848C102.392 16.342 101.426 15.976 101.435 15.141C101.445 14.306 102.43 13.968 103.396 13.968C104.606 13.968 105.431 14.4 105.516 15.507H111.248C111.182 11.417 107.495 10.216 103.743 10.216C99.183 10.216 95.628 12.289 95.573 16.21C95.573 19.296 97.655 20.431 100.797 21.238C102.814 21.773 104.418 21.942 104.4 23.152ZM148.236 13.292H148.133C147.878 12.3683 147.314 11.5597 146.536 11.0002C145.758 10.4407 144.812 10.164 143.855 10.216C141.304 10.216 139.747 11.482 138.274 13.396H138.171L138.715 10.75H132.748L129.174 27.842H135.413L137.289 18.621C137.72 16.613 138.743 15.206 140.291 15.206C141.839 15.206 142.045 16.445 141.726 17.955L139.662 27.842H145.9L147.777 18.621C148.208 16.482 149.231 15.206 150.778 15.206C152.326 15.206 152.533 16.379 152.214 17.955L150.15 27.842H156.388L158.621 17.682C159.559 13.396 158.124 10.178 154.006 10.178C152.86 10.1734 151.732 10.4561 150.724 11.0003C149.716 11.5445 148.861 12.3328 148.236 13.293V13.292ZM1.14398 27.843H7.58998L12.57 3.87402H6.13498L1.14498 27.842L1.14398 27.843ZM20.544 10.245C24.897 10.245 29.052 12.628 28.987 18.022C28.931 23.922 24.916 28.341 18.78 28.341C14.559 28.341 10.338 25.995 10.413 20.629C10.516 14.869 14.475 10.245 20.544 10.245ZM18.959 24.157C21.707 24.157 22.711 20.17 22.711 17.825C22.711 16.145 22.195 14.504 20.385 14.504C17.665 14.504 16.735 18.725 16.735 20.902C16.735 22.646 17.223 24.157 18.996 24.157M14.72 3.87402L13.781 8.66802H67.9L68.838 3.87402H14.718H14.72ZM58.247 10.244C62.599 10.244 66.755 12.627 66.69 18.021C66.633 23.921 62.609 28.34 56.474 28.34C52.252 28.34 48.031 25.994 48.115 20.628C48.247 14.868 52.205 10.244 58.247 10.244ZM56.689 24.156C59.439 24.156 60.442 20.169 60.442 17.824C60.442 16.144 59.916 14.503 58.106 14.503C55.395 14.503 54.456 18.724 54.456 20.901C54.456 22.645 54.945 24.156 56.727 24.156M71.051 3.87402L70.112 8.66802H76.342L77.28 3.87402H71.051ZM66.06 27.842H72.298L75.872 10.751H69.597L66.06 27.842ZM85.966 28.415C84.9731 28.4853 83.9803 28.2776 83.0989 27.8152C82.2175 27.3527 81.4824 26.6539 80.976 25.797H80.872L78.996 34.447H72.683L77.749 10.75H83.677L83.208 13.03C83.8272 12.1881 84.6293 11.4974 85.5538 11.01C86.4784 10.5226 87.5014 10.2512 88.546 10.216C92.298 10.216 94.503 13.433 94.437 17.617C94.353 22.88 91.623 28.415 85.929 28.415H85.966ZM85.722 15.056C83.312 15.056 81.829 18.143 81.792 20.516C81.792 22.167 82.373 24.006 84.352 24.006C86.932 24.006 87.992 20.591 88.02 18.311C88.02 16.764 87.57 15.056 85.722 15.056ZM121.792 25.15H121.895L121.351 27.861H127.279L130.854 10.769H124.625L122.636 20.319C122.233 22.299 121.013 23.339 119.475 23.339C117.936 23.339 117.598 21.895 117.908 20.385L119.925 10.769H113.696L111.491 21.323C110.553 25.919 112.692 28.396 116.276 28.396C117.401 28.3851 118.504 28.0775 119.472 27.5042C120.441 26.931 121.241 26.1124 121.792 25.131V25.15ZM155.253 34.531L156.191 29.737H82.214L81.276 34.531H155.253Z" fill="white"/>
<path d="M161.96 15.44C161.867 15.4332 161.779 15.3988 161.706 15.3413C161.632 15.2837 161.578 15.2056 161.55 15.117C161.531 15.058 161.524 14.9958 161.529 14.934C161.607 14.0985 161.507 13.256 161.237 12.4616C160.967 11.6672 160.532 10.9387 159.961 10.324C159.39 9.70946 158.695 9.22255 157.922 8.89513C157.15 8.5677 156.317 8.40715 155.478 8.42398C155.354 8.42398 155.234 8.37456 155.146 8.28661C155.058 8.19866 155.009 8.07936 155.009 7.95498C155.009 7.83059 155.058 7.7113 155.146 7.62334C155.234 7.53539 155.354 7.48598 155.478 7.48598C155.703 7.49998 155.929 7.49998 156.154 7.48598C157.82 7.30862 159.373 6.5558 160.544 5.35714C161.715 4.15849 162.431 2.58902 162.57 0.918976C162.58 0.801461 162.634 0.69198 162.721 0.612176C162.807 0.532371 162.921 0.488051 163.039 0.487976C163.101 0.492386 163.161 0.509032 163.216 0.536944C163.272 0.564857 163.321 0.603479 163.361 0.650564C163.401 0.69765 163.432 0.752258 163.45 0.811214C163.469 0.870169 163.476 0.932294 163.471 0.993976C163.393 1.82867 163.493 2.67033 163.762 3.46412C164.032 4.25791 164.465 4.98601 165.035 5.60098C165.606 6.21495 166.299 6.70183 167.071 7.02988C167.842 7.35794 168.674 7.51982 169.512 7.50498C169.604 7.5055 169.695 7.53328 169.771 7.58483C169.848 7.63638 169.908 7.70943 169.943 7.79482C169.979 7.88021 169.988 7.97415 169.971 8.06489C169.953 8.15564 169.909 8.23915 169.844 8.30498C169.756 8.39316 169.637 8.4428 169.512 8.44298C167.73 8.47261 166.022 9.15915 164.715 10.3709C163.408 11.5826 162.594 13.2343 162.43 15.009C162.42 15.1268 162.366 15.2367 162.279 15.3167C162.192 15.3968 162.078 15.4411 161.96 15.441V15.44Z" fill="white"/>
</g>
<defs>
<clipPath id="clip0_13_106">
<rect width="175" height="40" fill="white"/>
</clipPath>
</defs>
</svg>
