<svg width="146" height="146" viewBox="0 0 146 146" fill="none" xmlns="http://www.w3.org/2000/svg">
<g clip-path="url(#clip0_14_219)">
<path d="M72.9997 73C66.308 73 60.833 67.525 60.833 60.8333C60.833 54.1417 66.308 48.6667 72.9997 48.6667C79.6913 48.6667 85.1663 54.1417 85.1663 60.8333C85.1663 67.525 79.6913 73 72.9997 73ZM109.5 62.05C109.5 39.9675 93.3788 24.3333 72.9997 24.3333C52.6205 24.3333 36.4997 39.9675 36.4997 62.05C36.4997 76.285 48.3622 95.1433 72.9997 117.652C97.6372 95.1433 109.5 76.285 109.5 62.05ZM72.9997 12.1667C98.5497 12.1667 121.666 31.755 121.666 62.05C121.666 82.2467 105.424 106.154 72.9997 133.833C40.5755 106.154 24.333 82.2467 24.333 62.05C24.333 31.755 47.4497 12.1667 72.9997 12.1667Z" fill="black"/>
</g>
<defs>
<clipPath id="clip0_14_219">
<rect width="146" height="146" fill="white"/>
</clipPath>
</defs>
</svg>
