<svg width="169" height="42" viewBox="0 0 169 42" fill="none" xmlns="http://www.w3.org/2000/svg">
<g clip-path="url(#clip0_13_87)">
<path d="M50.86 29.353H62.812V25.753H55.108V12.193H50.86V29.353ZM69.893 26.953C68.189 26.953 67.301 25.465 67.301 23.233C67.301 21.001 68.189 19.489 69.893 19.489C71.597 19.489 72.509 21.001 72.509 23.233C72.509 25.465 71.597 26.953 69.893 26.953ZM69.917 29.737C73.877 29.737 76.469 26.929 76.469 23.233C76.469 19.537 73.877 16.729 69.917 16.729C65.981 16.729 63.341 19.537 63.341 23.233C63.341 26.929 65.981 29.737 69.917 29.737ZM83.324 33.601C85.148 33.601 86.756 33.193 87.836 32.233C88.82 31.345 89.468 30.001 89.468 28.153V17.065H85.724V18.385H85.676C84.956 17.353 83.852 16.705 82.22 16.705C79.172 16.705 77.06 19.249 77.06 22.849C77.06 26.617 79.628 28.681 82.388 28.681C83.876 28.681 84.812 28.081 85.532 27.265H85.628V28.489C85.628 29.977 84.932 30.841 83.276 30.841C81.98 30.841 81.332 30.289 81.116 29.641H77.324C77.708 32.209 79.94 33.601 83.324 33.601ZM83.3 25.777C81.836 25.777 80.876 24.577 80.876 22.729C80.876 20.857 81.836 19.657 83.3 19.657C84.932 19.657 85.796 21.049 85.796 22.705C85.796 24.433 85.004 25.777 83.3 25.777ZM97.166 26.953C95.462 26.953 94.574 25.465 94.574 23.233C94.574 21.001 95.462 19.489 97.166 19.489C98.87 19.489 99.782 21.001 99.782 23.233C99.782 25.465 98.87 26.953 97.166 26.953ZM97.19 29.737C101.15 29.737 103.742 26.929 103.742 23.233C103.742 19.537 101.15 16.729 97.19 16.729C93.254 16.729 90.614 19.537 90.614 23.233C90.614 26.929 93.254 29.737 97.19 29.737ZM104.884 29.353H108.796V17.065H104.884V29.353ZM104.884 15.361H108.796V12.193H104.884V15.361ZM110.494 33.41H114.406V28.08H114.454C115.222 29.112 116.35 29.736 117.934 29.736C121.15 29.736 123.286 27.192 123.286 23.208C123.286 19.512 121.294 16.704 118.03 16.704C116.35 16.704 115.15 17.448 114.31 18.552H114.238V17.064H110.494V33.41ZM116.926 26.713C115.246 26.713 114.286 25.345 114.286 23.353C114.286 21.361 115.15 19.849 116.854 19.849C118.534 19.849 119.326 21.241 119.326 23.353C119.326 25.441 118.414 26.713 116.926 26.713ZM129.655 29.737C132.871 29.737 135.247 28.345 135.247 25.657C135.247 22.513 132.703 21.961 130.543 21.601C128.983 21.313 127.591 21.193 127.591 20.329C127.591 19.561 128.335 19.201 129.295 19.201C130.375 19.201 131.119 19.537 131.263 20.641H134.863C134.671 18.217 132.799 16.705 129.319 16.705C126.415 16.705 124.015 18.049 124.015 20.641C124.015 23.521 126.295 24.097 128.431 24.457C130.063 24.745 131.551 24.865 131.551 25.969C131.551 26.761 130.807 27.193 129.631 27.193C128.335 27.193 127.519 26.593 127.375 25.369H123.679C123.799 28.081 126.055 29.737 129.655 29.737ZM140.561 29.713C142.265 29.713 143.345 29.041 144.233 27.841H144.305V29.353H148.049V17.065H144.137V23.929C144.137 25.393 143.321 26.401 141.977 26.401C140.729 26.401 140.129 25.657 140.129 24.313V17.065H136.241V25.129C136.241 27.865 137.729 29.713 140.561 29.713ZM149.75 29.353H153.662V22.465C153.662 21.001 154.382 19.969 155.606 19.969C156.782 19.969 157.334 20.737 157.334 22.057V29.353H161.246V22.465C161.246 21.001 161.942 19.969 163.19 19.969C164.366 19.969 164.918 20.737 164.918 22.057V29.353H168.83V21.361C168.83 18.601 167.438 16.705 164.654 16.705C163.07 16.705 161.75 17.377 160.79 18.865H160.742C160.118 17.545 158.894 16.705 157.286 16.705C155.51 16.705 154.334 17.545 153.566 18.817H153.494V17.065H149.75V29.353Z" fill="#1A1414"/>
<path fill-rule="evenodd" clip-rule="evenodd" d="M20.684 0.961975C31.946 0.961975 41.075 10.092 41.075 21.353C41.075 32.615 31.946 41.745 20.685 41.745C9.422 41.745 0.292999 32.615 0.292999 21.353C0.292999 10.091 9.423 0.961975 20.684 0.961975ZM40.293 21.353C40.293 10.523 31.513 1.74498 20.684 1.74498C19.811 1.74498 18.951 1.80198 18.107 1.91198C18.657 1.86393 19.2089 1.83991 19.761 1.83998C30.109 1.83998 38.498 10.23 38.498 20.577C38.498 30.926 30.108 39.315 19.761 39.315C9.964 39.315 1.923 31.795 1.094 22.214C1.544 32.644 10.143 40.962 20.684 40.962C31.514 40.962 40.293 32.182 40.293 21.353ZM37.715 20.577C37.715 10.661 29.677 2.62297 19.761 2.62297C18.956 2.62297 18.163 2.67598 17.386 2.77898C17.864 2.73898 18.348 2.71798 18.837 2.71798C28.272 2.71798 35.92 10.366 35.92 19.801C35.92 29.235 28.272 36.883 18.837 36.883C9.917 36.883 2.593 30.046 1.822 21.326C2.214 30.895 10.095 38.532 19.761 38.532C29.677 38.532 37.715 30.492 37.715 20.577ZM18.837 3.50198C27.839 3.50198 35.137 10.799 35.137 19.802C35.137 28.804 27.839 36.102 18.837 36.102C10.043 36.102 2.876 29.138 2.549 20.425C3.255 28.289 9.865 34.453 17.914 34.453C26.434 34.453 33.341 27.546 33.341 19.026C33.341 10.506 26.434 3.59697 17.914 3.59697C17.473 3.59697 17.036 3.61598 16.605 3.65198C17.335 3.55198 18.08 3.50198 18.837 3.50198ZM32.56 19.025C32.56 10.937 26.003 4.37998 17.915 4.37998C17.231 4.37998 16.559 4.42698 15.9 4.51698C16.26 4.48898 16.623 4.47498 16.99 4.47498C24.597 4.47498 30.763 10.641 30.763 18.248C30.763 25.855 24.597 32.021 16.99 32.021C9.83 32.021 3.947 26.558 3.28 19.574C3.568 27.407 10.01 33.67 17.915 33.67C26.003 33.67 32.56 27.113 32.56 19.025ZM16.989 5.25798C24.164 5.25798 29.979 11.074 29.979 18.248C29.979 25.423 24.164 31.238 16.989 31.238C9.956 31.238 4.229 25.65 4.005 18.671C4.607 24.801 9.777 29.591 16.065 29.591C22.759 29.591 28.185 24.164 28.185 17.471C28.185 10.778 22.759 5.35198 16.065 5.35198C15.759 5.35198 15.455 5.36398 15.153 5.38598C15.753 5.30098 16.366 5.25798 16.989 5.25798ZM27.402 17.47C27.402 11.21 22.326 6.13398 16.066 6.13398C15.494 6.13398 14.933 6.17598 14.384 6.25798C14.634 6.23997 14.887 6.23098 15.142 6.23098C20.922 6.23098 25.606 10.916 25.606 16.695C25.606 22.474 20.921 27.158 15.142 27.158C9.727 27.158 5.272 23.045 4.733 17.772C4.893 23.894 9.906 28.807 16.066 28.807C22.326 28.807 27.402 23.731 27.402 17.47ZM15.142 7.01498C20.489 7.01498 24.823 11.349 24.823 16.695C24.823 22.042 20.489 26.377 15.143 26.377C9.863 26.377 5.572 22.152 5.463 16.899C5.71414 19.136 6.81209 21.1921 8.53145 22.6451C10.2508 24.0981 12.4612 24.8378 14.7088 24.7124C16.9564 24.587 19.0707 23.606 20.6178 21.9707C22.1648 20.3355 23.0273 18.1701 23.028 15.919C23.0279 14.7155 22.7813 13.5248 22.3032 12.4203C21.8252 11.3159 21.126 10.321 20.2487 9.49724C19.3714 8.67343 18.3346 8.0381 17.2023 7.63044C16.0699 7.22278 14.8661 7.05143 13.665 7.12698C14.1538 7.05226 14.6475 7.01482 15.142 7.01498ZM22.246 15.919C22.2462 14.7541 21.9928 13.6031 21.5035 12.546C21.0142 11.4888 20.3007 10.5508 19.4124 9.79716C18.5242 9.04347 17.4826 8.49215 16.3599 8.18146C15.2372 7.87076 14.0603 7.80816 12.911 7.99798C14.3029 7.9236 15.6862 8.2574 16.891 8.95836C18.0957 9.65932 19.0696 10.6969 19.6928 11.9437C20.316 13.1905 20.5615 14.5921 20.399 15.9765C20.2366 17.3609 19.6734 18.6677 18.7785 19.7363C17.8836 20.805 16.6961 21.589 15.3618 21.9921C14.0275 22.3952 12.6045 22.3997 11.2676 22.0052C9.93077 21.6107 8.73825 20.8343 7.83655 19.7714C6.93486 18.7084 6.36327 17.4053 6.192 16.022C6.2249 18.1379 7.09204 20.1553 8.60476 21.6351C10.1175 23.115 12.1534 23.9376 14.2695 23.924C16.3857 23.9104 18.4109 23.0617 19.9045 21.5626C21.3981 20.0635 22.2402 18.0352 22.246 15.919ZM13.293 8.76998C14.5546 8.76979 15.7879 9.14405 16.8366 9.84536C17.8853 10.5467 18.7023 11.5435 19.184 12.7095C19.6658 13.8755 19.7906 15.1583 19.5427 16.3953C19.2948 17.6323 18.6853 18.7679 17.7915 19.6582C16.8976 20.5486 15.7596 21.1536 14.5217 21.3966C13.2837 21.6396 12.0014 21.5098 10.8373 21.0235C9.67321 20.5371 8.67963 19.7163 7.98245 18.6648C7.28527 17.6133 6.91585 16.3786 6.921 15.117C7.06632 16.1717 7.51459 17.1616 8.21143 17.9666C8.90827 18.7715 9.82373 19.357 10.8468 19.6519C11.8698 19.9468 12.9564 19.9385 13.9748 19.628C14.9932 19.3175 15.8996 18.7181 16.5841 17.9026C17.2686 17.0871 17.7017 16.0905 17.8309 15.0337C17.9601 13.9769 17.7798 12.9053 17.312 11.9489C16.8441 10.9925 16.1088 10.1924 15.1952 9.64572C14.2816 9.09902 13.2289 8.8292 12.165 8.86898C12.531 8.80398 12.908 8.76898 13.293 8.76898V8.76998ZM17.087 14.365C17.087 13.1138 16.59 11.9139 15.7053 11.0292C14.8206 10.1445 13.6207 9.64748 12.3695 9.64748C11.1183 9.64748 9.91843 10.1445 9.03372 11.0292C8.14902 11.9139 7.652 13.1138 7.652 14.365C7.652 15.6161 8.14902 16.816 9.03372 17.7008C9.91843 18.5855 11.1183 19.0825 12.3695 19.0825C13.6207 19.0825 14.8206 18.5855 15.7053 17.7008C16.59 16.816 17.087 15.6161 17.087 14.365Z" fill="#1A1414"/>
</g>
<defs>
<clipPath id="clip0_13_87">
<rect width="169" height="42" fill="white"/>
</clipPath>
</defs>
</svg>
