<svg width="154" height="44" viewBox="0 0 154 44" fill="none" xmlns="http://www.w3.org/2000/svg">
<path d="M51.439 28V10.888H48.633V28H51.439ZM53.156 22.296C53.156 25.792 55.502 28.276 59.067 28.276C62.632 28.276 64.978 25.792 64.978 22.296C64.978 18.8 62.632 16.316 59.068 16.316C55.502 16.316 53.156 18.8 53.156 22.296ZM55.986 22.296C55.986 20.249 57.204 18.823 59.067 18.823C60.93 18.823 62.149 20.249 62.149 22.296C62.149 24.32 60.93 25.769 59.067 25.769C57.204 25.769 55.986 24.32 55.986 22.296ZM65.922 22.066C65.922 25.378 68.062 27.77 71.258 27.77C72.914 27.77 74.34 27.103 75.053 25.999V27.931C75.053 29.794 73.88 31.036 71.925 31.036C70.177 31.036 68.981 30.185 68.82 28.69H65.991C66.359 31.657 68.636 33.589 71.764 33.589C75.444 33.589 77.79 31.174 77.79 27.425V16.638H75.306L75.146 18.179C74.456 16.983 73.029 16.27 71.35 16.27C68.107 16.27 65.922 18.731 65.922 22.066ZM68.774 21.997C68.774 20.111 69.97 18.731 71.741 18.731C73.673 18.731 74.961 20.134 74.961 21.997C74.961 23.883 73.673 25.332 71.741 25.332C69.993 25.332 68.774 23.906 68.774 21.997ZM79.179 22.296C79.179 25.792 81.525 28.276 85.089 28.276C88.655 28.276 91.001 25.792 91.001 22.296C91.001 18.8 88.655 16.316 85.09 16.316C81.525 16.316 79.179 18.8 79.179 22.296ZM82.008 22.296C82.008 20.249 83.227 18.823 85.09 18.823C86.953 18.823 88.172 20.249 88.172 22.296C88.172 24.32 86.952 25.769 85.09 25.769C83.227 25.769 82.008 24.32 82.008 22.296ZM94.037 14.315C94.957 14.315 95.717 13.579 95.717 12.636C95.717 11.716 94.957 10.98 94.037 10.98C93.094 10.98 92.381 11.716 92.381 12.636C92.381 13.579 93.094 14.315 94.037 14.315ZM92.634 28H95.44V16.638H92.635L92.634 28ZM97.899 33.267H100.636V26.436C101.349 27.609 102.89 28.299 104.592 28.299C107.95 28.299 109.951 25.723 109.905 22.181C109.836 18.616 107.789 16.293 104.569 16.293C102.844 16.293 101.28 17.052 100.59 18.363L100.429 16.638H97.899V33.267ZM100.751 22.319C100.751 20.272 101.993 18.846 103.948 18.846C105.903 18.846 107.076 20.295 107.076 22.319C107.076 24.343 105.903 25.769 103.948 25.769C101.993 25.769 100.751 24.366 100.751 22.319ZM110.617 24.596C110.709 26.85 112.457 28.299 115.171 28.299C117.839 28.299 119.656 26.873 119.656 24.665C119.656 23.032 118.644 21.928 116.781 21.468L114.78 20.985C113.929 20.755 113.354 20.456 113.354 19.72C113.354 18.938 113.975 18.386 114.987 18.386C116.045 18.386 116.735 18.984 116.735 19.973H119.288C119.196 17.719 117.517 16.293 115.056 16.293C112.618 16.293 110.801 17.719 110.801 19.881C110.801 21.353 111.652 22.572 113.837 23.147L115.815 23.653C116.551 23.86 117.011 24.205 117.011 24.849C117.011 25.746 116.16 26.16 115.125 26.16C113.883 26.16 113.17 25.585 113.17 24.596H110.617ZM125.477 28.299C127.018 28.299 128.49 27.586 129.157 26.528L129.341 28H131.963V16.638H129.157V22.595C129.157 24.642 128.375 25.792 126.535 25.792C125.109 25.792 124.12 25.102 124.12 22.756V16.638H121.314V23.745C121.314 26.459 122.786 28.299 125.477 28.299ZM137.245 28V21.468C137.245 19.628 138.326 18.754 139.66 18.754C140.994 18.754 141.868 19.605 141.868 21.215V28H144.605V21.491C144.605 19.628 145.663 18.754 146.997 18.754C148.354 18.754 149.228 19.605 149.228 21.215V28H151.942V20.571C151.942 17.949 150.493 16.293 147.733 16.293C146.008 16.293 144.651 17.121 144.099 18.455C143.478 17.121 142.236 16.293 140.35 16.293C139.016 16.293 137.82 16.914 137.153 17.926L137.015 16.638H134.439V28H137.245Z" fill="#43505C"/>
<path d="M130.518 38.154C130.723 38.1517 130.918 38.0702 131.064 37.9266C131.21 37.783 131.294 37.5885 131.299 37.384C131.296 37.1777 131.213 36.9805 131.067 36.8346C130.921 36.6887 130.724 36.6056 130.518 36.603C130.31 36.6035 130.11 36.6856 129.962 36.8316C129.814 36.9777 129.729 37.176 129.726 37.384C129.726 37.802 130.089 38.154 130.518 38.154ZM132.106 35.316C132.106 36.999 133.14 38.132 134.647 38.132C135.945 38.132 136.935 37.351 137.144 36.185H136.154C135.967 36.834 135.395 37.219 134.713 37.219C133.745 37.219 133.129 36.471 133.129 35.305C133.129 34.117 133.778 33.391 134.735 33.391C135.395 33.391 135.967 33.743 136.143 34.436H137.133C136.957 33.259 136.033 32.467 134.746 32.467C133.184 32.467 132.106 33.622 132.106 35.316ZM137.534 35.305C137.534 36.922 138.634 38.132 140.284 38.132C141.934 38.132 143.034 36.922 143.034 35.305C143.034 33.688 141.934 32.478 140.284 32.478C138.634 32.478 137.534 33.688 137.534 35.305ZM138.579 35.305C138.579 34.205 139.25 33.402 140.284 33.402C141.318 33.402 141.989 34.205 141.989 35.305C141.989 36.405 141.318 37.208 140.284 37.208C139.25 37.208 138.579 36.405 138.579 35.305ZM144.951 38.011V34.777C144.951 33.93 145.479 33.38 146.249 33.38C146.986 33.38 147.448 33.853 147.448 34.7V38.011H148.46V34.788C148.46 33.93 148.977 33.38 149.758 33.38C150.484 33.38 150.946 33.853 150.946 34.7V38.011H151.947V34.48C151.947 33.237 151.221 32.478 149.989 32.478C149.153 32.478 148.504 32.885 148.24 33.545C147.965 32.885 147.36 32.478 146.48 32.478C145.809 32.478 145.215 32.786 144.918 33.314L144.841 32.632H143.917V38.011H144.951Z" fill="#8E98A1"/>
<path fill-rule="evenodd" clip-rule="evenodd" d="M2 22.435L2.002 22.235L2.006 22.035L2.012 21.834L2.02 21.634L2.03 21.433L2.042 21.233L2.057 21.032L2.073 20.832L2.091 20.632L2.111 20.431L2.134 20.231L2.159 20.031L2.186 19.831L2.214 19.631L2.245 19.432L2.278 19.233L2.313 19.034L2.35 18.836L2.389 18.637L2.429 18.439L2.473 18.241L2.518 18.044L2.565 17.847L2.615 17.65L2.665 17.454L2.719 17.258L2.774 17.063L2.831 16.868L2.891 16.673L2.951 16.479L3.015 16.286L3.081 16.093L3.148 15.901L3.218 15.709L3.288 15.518L3.362 15.328L3.437 15.138L3.515 14.948L3.594 14.76L3.675 14.572L3.758 14.385L3.844 14.199L3.931 14.013L4.02 13.829L4.11 13.645L4.203 13.461L4.298 13.279L4.395 13.098L4.493 12.918L4.594 12.738L4.696 12.558L4.801 12.381L4.907 12.204L5.015 12.028L5.125 11.853L5.236 11.679L5.349 11.507L5.465 11.335L5.582 11.164L5.701 10.994L5.821 10.826L5.944 10.658L6.068 10.492L6.194 10.327L6.322 10.163L6.45 10L6.581 9.838L6.714 9.678L6.848 9.518L6.985 9.361L7.123 9.204L7.263 9.049L7.403 8.895L7.546 8.742L7.691 8.591L7.837 8.441L7.984 8.292L8.134 8.145L8.284 7.999L8.437 7.855L8.59 7.712L8.746 7.57L8.903 7.43L9.061 7.292L9.221 7.155L9.382 7.019L9.545 6.885L9.709 6.753L9.875 6.622L10.042 6.492L10.211 6.365L10.381 6.239L10.551 6.114L10.724 5.991L10.898 5.871L11.073 5.751L11.25 5.633L11.427 5.517L11.607 5.402L11.787 5.289L11.968 5.179L12.151 5.069L12.335 4.961L12.519 4.855L12.706 4.751L12.893 4.649L13.081 4.549L13.271 4.449L13.461 4.353L13.653 4.258L13.846 4.165L14.04 4.074L14.234 3.984L14.43 3.897L14.627 3.811L14.825 3.727L15.023 3.645L15.223 3.565L15.423 3.487L15.624 3.411L15.827 3.337L16.03 3.265L16.233 3.195L16.438 3.126L16.643 3.06L16.849 2.996L17.056 2.933L17.264 2.873L17.472 2.815L17.681 2.758L17.891 2.704L18.101 2.652L18.311 2.602L18.523 2.554L18.735 2.508L18.948 2.464L19.161 2.422L19.374 2.382L19.588 2.344L19.803 2.308L20.018 2.275L20.233 2.243L20.449 2.213L20.665 2.186L20.882 2.161L21.099 2.138L21.316 2.118L21.534 2.098L21.751 2.082L21.969 2.067L23.143 2L23.21 7.649H23.248L23.41 7.648L23.572 7.649L23.734 7.652L23.896 7.657L24.058 7.663L24.22 7.671L24.382 7.68L24.544 7.691L24.706 7.703L24.868 7.718L25.03 7.733L25.192 7.751L25.354 7.77L25.515 7.79L25.677 7.812L25.838 7.836L26 7.861L26.16 7.888L26.321 7.917L26.482 7.947L26.642 7.978L26.802 8.012L26.962 8.046L27.122 8.083L27.282 8.121L27.441 8.161L27.599 8.201L27.758 8.245L27.916 8.289L28.073 8.335L28.23 8.382L28.387 8.432L28.544 8.482L28.7 8.534L28.855 8.588L29.01 8.643L29.165 8.7L29.319 8.759L29.472 8.819L29.625 8.88L29.778 8.943L29.93 9.008L30.08 9.074L30.232 9.141L30.382 9.211L30.531 9.281L30.68 9.353L30.828 9.427L30.975 9.502L31.122 9.578L31.268 9.656L31.413 9.736L31.558 9.816L31.701 9.899L31.844 9.983L31.987 10.069L32.128 10.155L32.268 10.244L32.408 10.334L32.548 10.424L32.685 10.517L32.822 10.611L32.959 10.706L33.094 10.803L33.228 10.901L33.362 11.001L33.495 11.101L33.626 11.203L33.756 11.307L33.886 11.411L34.015 11.517L34.142 11.625L34.269 11.733L34.394 11.843L34.519 11.955L34.642 12.067L34.764 12.181L34.885 12.296L35.005 12.413L35.124 12.53L35.242 12.65L35.358 12.77L35.474 12.89L35.588 13.013L35.701 13.136L35.812 13.261L35.922 13.387L36.032 13.514L36.14 13.642L36.247 13.772L36.352 13.902L36.457 14.034L36.559 14.166L36.661 14.3L36.761 14.435L36.861 14.571L36.958 14.707L37.054 14.845L37.149 14.985L37.242 15.125L37.335 15.265L37.425 15.407L37.515 15.55L37.602 15.693L37.689 15.838L37.774 15.984L37.857 16.13L37.939 16.278L38.02 16.426L38.1 16.575L38.177 16.725L38.253 16.875L38.327 17.027L38.401 17.18L38.472 17.333L38.542 17.487L38.611 17.642L38.678 17.797L38.743 17.954L38.807 18.111L38.869 18.268L38.929 18.427L38.989 18.586L39.046 18.746L39.102 18.906L39.156 19.066L39.208 19.228L39.259 19.39L39.309 19.553L39.356 19.716L39.402 19.88L39.446 20.045L39.489 20.209L39.53 20.375L39.57 20.541L39.607 20.707L39.643 20.874L39.677 21.041L39.71 21.209L39.74 21.377L39.77 21.545L39.797 21.714L39.823 21.883L39.847 22.053L39.869 22.222L39.889 22.392L39.909 22.562L39.925 22.732L39.941 22.904L39.954 23.074L39.966 23.246L39.976 23.418L39.984 23.589L39.991 23.761L39.996 23.933L39.999 24.105L40 24.277V24.45L39.997 24.622L39.993 24.794L39.987 24.967L39.98 25.139L39.97 25.312L39.96 25.484L39.946 25.657L39.932 25.829L39.915 26.002L39.897 26.174L39.877 26.346L39.855 26.518L39.832 26.69L39.806 26.862L39.779 27.034L39.75 27.204L39.72 27.376L39.687 27.547L39.653 27.717L39.617 27.888L39.579 28.058L39.539 28.228L39.499 28.398L39.455 28.568L39.41 28.736L39.364 28.905L39.316 29.073L39.266 29.241L39.214 29.409L39.16 29.575L39.105 29.742L39.048 29.908L38.989 30.074L38.929 30.239L38.867 30.403L38.803 30.567L38.737 30.731L38.67 30.894L38.6 31.056L38.53 31.218L38.458 31.378L38.384 31.539L38.308 31.699L38.23 31.859L38.151 32.017L38.071 32.174L37.988 32.331L37.904 32.488L37.818 32.643L37.731 32.798L37.641 32.952L37.551 33.105L37.459 33.257L37.365 33.409L37.27 33.559L37.173 33.709L37.074 33.859L36.974 34.006L36.872 34.153L36.769 34.3L36.664 34.445L36.558 34.589L36.45 34.732L36.34 34.875L36.23 35.015L36.117 35.156L36.003 35.296L35.888 35.434L35.771 35.571L35.653 35.707L35.533 35.842L35.412 35.975L35.289 36.108L35.165 36.24L35.04 36.37L34.913 36.499L34.785 36.627L34.655 36.754L34.525 36.879L34.392 37.004L34.258 37.127L34.123 37.249L33.987 37.369L33.849 37.489L33.711 37.607L33.571 37.723L33.429 37.839L33.286 37.953L33.142 38.065L32.997 38.177L32.851 38.287L32.704 38.395L32.555 38.502L32.405 38.608L32.255 38.713L32.102 38.815L31.949 38.917L31.794 39.017L31.639 39.115L31.483 39.212L31.325 39.308L31.166 39.402L31.006 39.495L30.846 39.585L30.684 39.675L30.521 39.763L30.358 39.849L30.193 39.934L30.028 40.018L29.861 40.099L29.694 40.179L29.525 40.258L29.356 40.334L29.186 40.41L29.016 40.483L28.844 40.555L28.671 40.625L28.498 40.694L28.324 40.761L28.149 40.826L27.973 40.89L27.797 40.952L27.62 41.012L27.442 41.07L27.264 41.127L27.084 41.182L26.904 41.235L26.724 41.287L26.544 41.337L26.362 41.384L26.18 41.431L25.997 41.475L25.814 41.518L25.63 41.558L25.446 41.598L25.261 41.636L25.076 41.671L24.89 41.705L24.704 41.737L24.518 41.767L24.331 41.795L24.144 41.822L23.956 41.847L23.768 41.87L23.58 41.89L23.392 41.91L23.202 41.927L23.014 41.943L22.824 41.956L22.635 41.968L22.445 41.978L22.255 41.986L22.065 41.992L21.875 41.997L21.685 41.999L21.495 42L21.304 41.999L21.114 41.996L20.922 41.991L20.732 41.984L20.542 41.975L20.35 41.965L20.16 41.952L19.97 41.938L19.779 41.922L19.589 41.904L19.398 41.884L19.208 41.862L19.018 41.838L18.828 41.813L18.638 41.785L18.448 41.755L18.258 41.725L18.07 41.692L17.88 41.657L17.692 41.62L17.504 41.581L17.316 41.541L17.128 41.498L16.941 41.454L16.754 41.408L16.568 41.36L16.382 41.31L16.196 41.258L16.011 41.205L15.826 41.15L15.642 41.093L15.458 41.033L15.275 40.973L15.092 40.91L14.91 40.846L14.729 40.779L14.548 40.711L14.368 40.641L14.188 40.57L14.008 40.496L13.831 40.421L13.653 40.344L13.476 40.265L13.3 40.185L13.124 40.102L12.95 40.018L12.776 39.932L12.603 39.844L12.431 39.755L12.26 39.664L12.089 39.571L11.919 39.477L11.751 39.381L11.583 39.283L11.416 39.183L11.25 39.082L11.085 38.979L10.921 38.874L10.758 38.768L10.596 38.66L10.436 38.55L10.276 38.44L10.116 38.327L9.959 38.213L9.802 38.097L9.647 37.979L9.493 37.859L9.339 37.739L9.187 37.617L9.037 37.493L8.887 37.368L8.739 37.241L8.592 37.113L8.446 36.983L8.301 36.852L8.158 36.719L8.016 36.585L7.875 36.449L7.735 36.312L7.598 36.173L7.461 36.033L7.326 35.893L7.192 35.749L7.059 35.605L6.929 35.46L6.799 35.313L6.671 35.165L6.544 35.015L6.419 34.865L6.295 34.713L6.173 34.559L6.053 34.405L5.933 34.249L5.815 34.092L5.699 33.934L5.585 33.774L5.472 33.614L5.361 33.452L5.251 33.289L5.143 33.124L5.037 32.959L4.932 32.793L4.829 32.625L4.727 32.457L4.627 32.287L4.53 32.117L4.433 31.945L4.339 31.772L4.246 31.598L4.155 31.424L4.065 31.248L3.978 31.071L3.892 30.894L3.808 30.715L3.726 30.536L3.646 30.356L3.566 30.175L3.49 29.993L3.415 29.81L3.342 29.626L3.271 29.442L3.201 29.257L3.134 29.071L3.068 28.884L3.004 28.697L2.942 28.509L2.882 28.32L2.824 28.13L2.768 27.94L2.714 27.75L2.662 27.559L2.612 27.367L2.563 27.175L2.517 26.982L2.472 26.788L2.43 26.594L2.389 26.4L2.35 26.205L2.314 26.009L2.279 25.813L2.247 25.617L2.217 25.42L2.187 25.223L2.161 25.026L2.136 24.828L2.114 24.63L2.094 24.431L2.074 24.233L2.058 24.033L2.044 23.835L2.031 23.635L2.021 23.435L2.013 23.235L2.007 23.035L2.002 22.835L2 22.635V22.435ZM21.378 7.767L21.332 3.917L21.289 3.921L21.09 3.942L20.892 3.965L20.694 3.99L20.497 4.017L20.299 4.046L20.102 4.076L19.906 4.109L19.71 4.144L19.515 4.181L19.319 4.219L19.125 4.259L18.93 4.301L18.737 4.345L18.544 4.391L18.352 4.439L18.16 4.489L17.968 4.54L17.778 4.594L17.588 4.649L17.398 4.706L17.21 4.765L17.022 4.825L16.835 4.888L16.648 4.952L16.463 5.018L16.278 5.086L16.094 5.156L15.91 5.227L15.728 5.3L15.546 5.375L15.366 5.452L15.186 5.53L15.006 5.61L14.828 5.692L14.651 5.776L14.475 5.861L14.299 5.948L14.125 6.036L13.952 6.126L13.779 6.218L13.609 6.312L13.438 6.407L13.268 6.504L13.101 6.602L12.933 6.702L12.768 6.804L12.603 6.907L12.439 7.012L12.277 7.118L12.116 7.226L11.956 7.335L11.796 7.445L11.639 7.558L11.483 7.672L11.327 7.787L11.173 7.904L11.021 8.022L10.869 8.142L10.719 8.262L10.571 8.385L10.423 8.509L10.277 8.634L10.133 8.76L9.989 8.889L9.847 9.018L9.707 9.148L9.567 9.28L9.43 9.413L9.293 9.548L9.159 9.684L9.025 9.821L8.893 9.959L8.763 10.098L8.633 10.238L8.506 10.381L8.381 10.524L8.256 10.668L8.133 10.813L8.012 10.959L7.892 11.107L7.774 11.256L7.658 11.406L7.543 11.556L7.429 11.708L7.317 11.861L7.207 12.015L7.099 12.17L6.992 12.325L6.887 12.482L6.783 12.64L6.682 12.799L6.582 12.959L6.482 13.119L6.386 13.28L6.291 13.442L6.198 13.605L6.106 13.769L6.016 13.934L5.928 14.1L5.841 14.266L5.757 14.433L5.674 14.601L5.592 14.769L5.513 14.939L5.435 15.109L5.36 15.279L5.285 15.45L5.213 15.622L5.143 15.794L5.074 15.968L5.007 16.141L4.942 16.316L4.879 16.49L4.817 16.666L4.757 16.841L4.7 17.018L4.644 17.195L4.59 17.372L4.538 17.549L4.488 17.727L4.439 17.906L4.392 18.085L4.347 18.264L4.304 18.444L4.264 18.624L4.224 18.804L4.187 18.984L4.151 19.164L4.118 19.346L4.086 19.527L4.056 19.708L4.028 19.89L4.002 20.072L3.978 20.254L3.955 20.436L3.935 20.618L3.916 20.801L3.899 20.983L3.884 21.165L3.871 21.348L3.861 21.531L3.851 21.713L3.844 21.896L3.838 22.078L3.835 22.261L3.833 22.443V22.625L3.835 22.808L3.839 22.99L3.844 23.172L3.852 23.354L3.862 23.535L3.872 23.717L3.886 23.898L3.901 24.079L3.918 24.259L3.936 24.44L3.956 24.62L3.979 24.8L4.003 24.98L4.029 25.16L4.057 25.339L4.087 25.517L4.118 25.695L4.152 25.873L4.187 26.05L4.224 26.227L4.262 26.404L4.302 26.58L4.345 26.755L4.389 26.93L4.435 27.105L4.482 27.279L4.532 27.452L4.582 27.625L4.635 27.797L4.69 27.969L4.746 28.139L4.804 28.309L4.864 28.479L4.925 28.649L4.988 28.817L5.053 28.984L5.119 29.151L5.188 29.317L5.258 29.482L5.328 29.647L5.402 29.811L5.477 29.974L5.553 30.136L5.631 30.297L5.711 30.457L5.791 30.617L5.874 30.776L5.959 30.934L6.045 31.09L6.132 31.246L6.222 31.401L6.312 31.555L6.404 31.709L6.497 31.861L6.593 32.011L6.689 32.161L6.787 32.311L6.887 32.459L6.987 32.606L7.09 32.752L7.194 32.896L7.299 33.04L7.406 33.183L7.514 33.324L7.624 33.464L7.734 33.604L7.847 33.742L7.961 33.878L8.076 34.014L8.192 34.148L8.31 34.282L8.429 34.414L8.549 34.544L8.67 34.674L8.793 34.802L8.917 34.929L9.042 35.055L9.168 35.179L9.296 35.302L9.425 35.424L9.555 35.544L9.686 35.664L9.818 35.781L9.952 35.897L10.086 36.012L10.222 36.126L10.358 36.238L10.496 36.349L10.636 36.459L10.776 36.566L10.916 36.673L11.058 36.778L11.201 36.882L11.345 36.984L11.49 37.084L11.636 37.184L11.782 37.282L11.93 37.378L12.079 37.473L12.228 37.566L12.378 37.658L12.53 37.748L12.682 37.837L12.834 37.924L12.988 38.009L13.143 38.093L13.298 38.176L13.454 38.256L13.61 38.336L13.768 38.414L13.926 38.49L14.085 38.565L14.245 38.638L14.405 38.708L14.565 38.778L14.727 38.847L14.889 38.913L15.052 38.978L15.215 39.041L15.379 39.103L15.543 39.163L15.708 39.222L15.873 39.278L16.039 39.333L16.205 39.387L16.372 39.438L16.539 39.488L16.706 39.537L16.874 39.584L17.043 39.629L17.212 39.672L17.381 39.714L17.55 39.754L17.72 39.792L17.89 39.829L18.06 39.864L18.23 39.897L18.401 39.929L18.572 39.959L18.744 39.987L18.914 40.013L19.086 40.038L19.258 40.061L19.43 40.083L19.602 40.103L19.774 40.12L19.946 40.137L20.119 40.151L20.291 40.164L20.463 40.176L20.636 40.186L20.808 40.193L20.98 40.199L21.153 40.204L21.325 40.206L21.497 40.208L21.669 40.207L21.841 40.205L22.013 40.201L22.185 40.195L22.356 40.188L22.528 40.178L22.698 40.168L22.87 40.156L23.04 40.142L23.211 40.126L23.381 40.109L23.551 40.089L23.721 40.069L23.891 40.047L24.059 40.023L24.228 39.997L24.396 39.97L24.564 39.941L24.732 39.911L24.899 39.878L25.066 39.845L25.232 39.809L25.398 39.772L25.563 39.734L25.728 39.694L25.892 39.652L26.056 39.608L26.219 39.564L26.382 39.517L26.544 39.469L26.706 39.419L26.866 39.369L27.027 39.316L27.187 39.261L27.346 39.205L27.504 39.148L27.662 39.089L27.819 39.029L27.975 38.967L28.131 38.904L28.285 38.839L28.439 38.773L28.593 38.705L28.745 38.635L28.897 38.565L29.047 38.493L29.197 38.419L29.347 38.344L29.495 38.268L29.643 38.19L29.79 38.11L29.935 38.03L30.08 37.948L30.224 37.865L30.367 37.78L30.509 37.694L30.65 37.606L30.79 37.518L30.929 37.428L31.067 37.336L31.204 37.243L31.34 37.15L31.475 37.054L31.609 36.958L31.741 36.86L31.873 36.761L32.003 36.661L32.133 36.559L32.262 36.457L32.389 36.353L32.515 36.248L32.64 36.142L32.764 36.034L32.887 35.926L33.008 35.816L33.128 35.706L33.248 35.593L33.365 35.48L33.482 35.366L33.597 35.251L33.711 35.135L33.824 35.018L33.936 34.899L34.046 34.78L34.156 34.66L34.263 34.538L34.369 34.416L34.474 34.293L34.578 34.168L34.68 34.043L34.782 33.917L34.882 33.79L34.98 33.662L35.077 33.533L35.172 33.403L35.267 33.273L35.359 33.142L35.451 33.01L35.541 32.877L35.629 32.743L35.717 32.608L35.802 32.473L35.887 32.337L35.969 32.2L36.051 32.062L36.131 31.924L36.209 31.784L36.286 31.645L36.362 31.505L36.436 31.364L36.508 31.222L36.579 31.08L36.649 30.937L36.717 30.793L36.783 30.649L36.849 30.505L36.912 30.359L36.974 30.214L37.034 30.067L37.094 29.921L37.151 29.774L37.206 29.626L37.261 29.478L37.313 29.329L37.365 29.18L37.415 29.03L37.462 28.881L37.509 28.731L37.553 28.58L37.597 28.43L37.639 28.278L37.679 28.126L37.717 27.975L37.754 27.822L37.79 27.67L37.824 27.517L37.856 27.364L37.886 27.211L37.916 27.058L37.943 26.905L37.969 26.751L37.993 26.597L38.016 26.443L38.037 26.289L38.057 26.135L38.075 25.98L38.091 25.826L38.106 25.671L38.119 25.517L38.131 25.362L38.141 25.208L38.149 25.053L38.156 24.899L38.161 24.744L38.165 24.59L38.167 24.435V24.127L38.163 23.973L38.159 23.819L38.153 23.665L38.146 23.511L38.136 23.358L38.126 23.204L38.114 23.051L38.1 22.898L38.085 22.746L38.068 22.593L38.05 22.441L38.03 22.289L38.009 22.137L37.986 21.986L37.961 21.835L37.935 21.685L37.907 21.534L37.878 21.384L37.848 21.234L37.816 21.085L37.782 20.937L37.747 20.788L37.71 20.64L37.672 20.493L37.632 20.346L37.592 20.2L37.549 20.053L37.505 19.908L37.459 19.763L37.412 19.618L37.364 19.475L37.314 19.331L37.263 19.189L37.21 19.047L37.156 18.905L37.1 18.765L37.043 18.624L36.985 18.484L36.925 18.346L36.864 18.207L36.801 18.07L36.737 17.933L36.672 17.797L36.605 17.661L36.537 17.526L36.468 17.392L36.398 17.259L36.325 17.127L36.252 16.995L36.177 16.865L36.102 16.735L36.024 16.605L35.946 16.477L35.866 16.349L35.786 16.223L35.703 16.097L35.62 15.972L35.535 15.849L35.449 15.725L35.362 15.603L35.274 15.483L35.184 15.362L35.094 15.242L35.002 15.124L34.909 15.007L34.815 14.891L34.72 14.775L34.624 14.661L34.526 14.548L34.427 14.435L34.328 14.325L34.228 14.214L34.125 14.104L34.023 13.997L33.919 13.89L33.814 13.784L33.708 13.679L33.601 13.575L33.493 13.473L33.384 13.371L33.274 13.271L33.164 13.171L33.052 13.074L32.939 12.977L32.825 12.881L32.711 12.787L32.596 12.693L32.479 12.601L32.362 12.511L32.244 12.421L32.125 12.332L32.005 12.245L31.885 12.159L31.764 12.074L31.642 11.991L31.519 11.908L31.396 11.828L31.271 11.748L31.146 11.668L31.02 11.592L30.893 11.516L30.766 11.441L30.639 11.368L30.509 11.296L30.381 11.225L30.251 11.155L30.121 11.087L29.989 11.021L29.858 10.955L29.725 10.891L29.592 10.828L29.459 10.767L29.325 10.707L29.191 10.647L29.051 10.589L28.921 10.535L28.784 10.48L28.648 10.427L28.511 10.375L28.374 10.325L28.236 10.275L28.098 10.227L27.958 10.181L27.82 10.136L27.68 10.092L27.541 10.05L27.401 10.01L27.261 9.97L27.12 9.932L26.98 9.895L26.838 9.86L26.696 9.826L26.555 9.794L26.413 9.764L26.271 9.734L26.128 9.705L25.986 9.679L25.843 9.653L25.7 9.63L25.557 9.607L25.414 9.587L25.27 9.567L25.127 9.548L24.984 9.531L24.84 9.516L24.696 9.502L24.553 9.49L24.409 9.479L24.265 9.469L24.122 9.461L23.978 9.454L23.834 9.448L23.691 9.444L23.547 9.442L23.403 9.44H23.26L23.23 9.441L23.276 13.263H23.463L23.567 13.265L23.672 13.268L23.778 13.271L23.883 13.276L23.988 13.282L24.093 13.289L24.198 13.297L24.303 13.306L24.409 13.316L24.514 13.326L24.619 13.339L24.724 13.352L24.829 13.366L24.934 13.381L25.039 13.397L25.144 13.415L25.249 13.433L25.353 13.453L25.458 13.473L25.562 13.494L25.666 13.517L25.77 13.541L25.874 13.565L25.978 13.591L26.082 13.618L26.185 13.645L26.288 13.675L26.391 13.705L26.494 13.735L26.596 13.767L26.699 13.8L26.801 13.834L26.903 13.869L27.003 13.905L27.105 13.942L27.205 13.98L27.307 14.02L27.407 14.06L27.507 14.101L27.607 14.143L27.705 14.186L27.805 14.231L27.903 14.276L28.001 14.322L28.098 14.37L28.195 14.418L28.292 14.468L28.389 14.518L28.485 14.568L28.58 14.621L28.675 14.674L28.77 14.728L28.864 14.784L28.957 14.84L29.05 14.897L29.143 14.955L29.235 15.015L29.326 15.075L29.417 15.135L29.507 15.197L29.597 15.26L29.687 15.323L29.775 15.388L29.863 15.454L29.951 15.52L30.037 15.588L30.124 15.656L30.209 15.726L30.294 15.796L30.378 15.866L30.462 15.939L30.545 16.012L30.627 16.085L30.708 16.16L30.789 16.235L30.869 16.311L30.949 16.389L31.027 16.467L31.105 16.545L31.182 16.625L31.258 16.705L31.334 16.787L31.409 16.869L31.483 16.952L31.556 17.035L31.628 17.12L31.7 17.205L31.77 17.291L31.84 17.378L31.91 17.465L31.978 17.554L32.045 17.643L32.112 17.733L32.177 17.823L32.242 17.914L32.306 18.006L32.369 18.099L32.431 18.192L32.492 18.286L32.552 18.381L32.612 18.476L32.67 18.572L32.727 18.668L32.784 18.766L32.839 18.863L32.894 18.962L32.947 19.061L33 19.161L33.051 19.261L33.102 19.361L33.152 19.463L33.2 19.565L33.248 19.668L33.294 19.771L33.34 19.875L33.384 19.979L33.428 20.084L33.47 20.189L33.511 20.294L33.551 20.401L33.591 20.507L33.629 20.614L33.666 20.722L33.702 20.83L33.737 20.939L33.77 21.047L33.803 21.157L33.835 21.267L33.865 21.377L33.895 21.487L33.923 21.597L33.95 21.709L33.976 21.82L34.001 21.932L34.025 22.045L34.047 22.157L34.069 22.27L34.089 22.383L34.109 22.496L34.126 22.61L34.143 22.724L34.159 22.838L34.173 22.952L34.187 23.067L34.199 23.182L34.209 23.297L34.219 23.412L34.229 23.528L34.236 23.643L34.242 23.759L34.247 23.875L34.251 23.991L34.254 24.107L34.255 24.224V24.456L34.252 24.573L34.249 24.689L34.244 24.806L34.239 24.923L34.232 25.039L34.224 25.156L34.214 25.273L34.204 25.39L34.192 25.506L34.179 25.623L34.165 25.74L34.15 25.856L34.133 25.973L34.115 26.089L34.096 26.205L34.076 26.322L34.055 26.438L34.032 26.554L34.008 26.669L33.983 26.785L33.957 26.901L33.929 27.016L33.901 27.131L33.871 27.246L33.84 27.361L33.807 27.475L33.774 27.589L33.739 27.703L33.703 27.817L33.666 27.931L33.628 28.044L33.588 28.157L33.548 28.269L33.506 28.382L33.463 28.493L33.418 28.605L33.373 28.716L33.326 28.827L33.279 28.937L33.229 29.047L33.179 29.157L33.129 29.267L33.076 29.375L33.022 29.484L32.968 29.592L32.912 29.699L32.855 29.806L32.796 29.913L32.737 30.018L32.677 30.124L32.615 30.229L32.552 30.333L32.489 30.437L32.424 30.541L32.358 30.643L32.291 30.745L32.222 30.847L32.152 30.948L32.082 31.048L32.011 31.148L31.938 31.248L31.865 31.346L31.79 31.444L31.714 31.541L31.638 31.637L31.56 31.733L31.48 31.828L31.4 31.922L31.32 32.016L31.238 32.109L31.155 32.201L31.071 32.292L30.986 32.382L30.9 32.472L30.813 32.562L30.725 32.65L30.636 32.737L30.546 32.824L30.456 32.91L30.364 32.995L30.271 33.079L30.177 33.162L30.083 33.245L29.987 33.326L29.891 33.406L29.794 33.486L29.695 33.566L29.596 33.643L29.496 33.72L29.396 33.796L29.294 33.871L29.192 33.946L29.088 34.019L28.984 34.091L28.879 34.163L28.774 34.233L28.667 34.303L28.56 34.37L28.452 34.438L28.343 34.504L28.233 34.569L28.123 34.633L28.013 34.696L27.9 34.759L27.788 34.819L27.675 34.879L27.561 34.939L27.446 34.996L27.331 35.053L27.215 35.109L27.098 35.163L26.981 35.217L26.863 35.269L26.745 35.32L26.625 35.37L26.506 35.42L26.386 35.467L26.266 35.514L26.144 35.559L26.022 35.603L25.9 35.646L25.777 35.688L25.653 35.729L25.529 35.769L25.405 35.807L25.28 35.844L25.155 35.88L25.029 35.915L24.902 35.948L24.776 35.981L24.649 36.011L24.521 36.041L24.393 36.071L24.265 36.098L24.136 36.124L24.007 36.149L23.878 36.172L23.748 36.195L23.618 36.215L23.488 36.235L23.358 36.255L23.227 36.272L23.096 36.288L22.964 36.302L22.833 36.316L22.701 36.328L22.569 36.339L22.437 36.349L22.304 36.357L22.172 36.364L22.039 36.37L21.906 36.374L21.773 36.377L21.64 36.379H21.373L21.24 36.376L21.107 36.373L20.973 36.368L20.84 36.362L20.706 36.355L20.572 36.346L20.439 36.336L20.305 36.325L20.172 36.312L20.038 36.298L19.905 36.283L19.772 36.266L19.638 36.248L19.505 36.228L19.372 36.208L19.239 36.186L19.106 36.163L18.974 36.138L18.841 36.112L18.709 36.085L18.577 36.057L18.445 36.027L18.314 35.996L18.182 35.963L18.052 35.929L17.92 35.894L17.79 35.858L17.66 35.82L17.53 35.781L17.4 35.741L17.27 35.699L17.142 35.656L17.013 35.612L16.885 35.567L16.757 35.52L16.629 35.472L16.502 35.422L16.376 35.372L16.25 35.32L16.124 35.267L15.999 35.212L15.874 35.156L15.75 35.099L15.626 35.041L15.503 34.981L15.38 34.921L15.258 34.859L15.137 34.796L15.015 34.731L14.895 34.665L14.775 34.599L14.656 34.53L14.537 34.461L14.42 34.391L14.302 34.319L14.186 34.246L14.07 34.171L13.955 34.096L13.84 34.02L13.726 33.942L13.613 33.863L13.501 33.783L13.389 33.702L13.279 33.62L13.169 33.536L13.059 33.452L12.951 33.366L12.843 33.279L12.736 33.191L12.63 33.101L12.525 33.011L12.421 32.921L12.318 32.828L12.215 32.735L12.114 32.64L12.013 32.545L11.913 32.448L11.814 32.351L11.717 32.252L11.62 32.152L11.524 32.052L11.429 31.95L11.335 31.848L11.242 31.744L11.15 31.639L11.059 31.534L10.969 31.427L10.88 31.32L10.792 31.211L10.706 31.101L10.62 30.991L10.535 30.881L10.452 30.768L10.369 30.655L10.288 30.541L10.208 30.427L10.128 30.311L10.051 30.195L9.974 30.078L9.898 29.959L9.824 29.84L9.751 29.72L9.679 29.6L9.608 29.48L9.538 29.357L9.47 29.234L9.403 29.111L9.337 28.986L9.272 28.861L9.208 28.736L9.146 28.609L9.085 28.482L9.025 28.355L8.967 28.226L8.91 28.097L8.854 27.967L8.799 27.837L8.746 27.707L8.694 27.575L8.644 27.442L8.594 27.31L8.546 27.177L8.5 27.043L8.454 26.908L8.41 26.773L8.368 26.638L8.327 26.502L8.287 26.366L8.248 26.229L8.211 26.092L8.176 25.954L8.142 25.816L8.109 25.677L8.077 25.538L8.047 25.398L8.019 25.259L7.991 25.119L7.966 24.979L7.941 24.838L7.918 24.697L7.897 24.555L7.877 24.413L7.858 24.271L7.841 24.129L7.825 23.987L7.811 23.844L7.798 23.701L7.787 23.558L7.777 23.415L7.769 23.271L7.762 23.127L7.756 22.983L7.752 22.839L7.75 22.695L7.749 22.551V22.407L7.751 22.262L7.755 22.118L7.76 21.973L7.766 21.829L7.774 21.684L7.784 21.54L7.794 21.395L7.806 21.251L7.82 21.106L7.836 20.962L7.853 20.817L7.871 20.673L7.891 20.529L7.912 20.385L7.935 20.241L7.959 20.097L7.985 19.953L8.012 19.81L8.041 19.667L8.071 19.524L8.103 19.381L8.136 19.238L8.171 19.096L8.207 18.954L8.245 18.812L8.285 18.67L8.325 18.53L8.367 18.388L8.41 18.248L8.455 18.108L8.502 17.968L8.55 17.828L8.6 17.688L8.65 17.55L8.703 17.412L8.756 17.274L8.812 17.137L8.868 17L8.927 16.863L8.987 16.727L9.047 16.592L9.109 16.457L9.173 16.323L9.239 16.189L9.305 16.056L9.373 15.923L9.443 15.791L9.513 15.659L9.586 15.529L9.66 15.399L9.735 15.269L9.811 15.14L9.889 15.012L9.968 14.884L10.048 14.758L10.13 14.632L10.213 14.506L10.298 14.382L10.384 14.258L10.471 14.135L10.559 14.012L10.649 13.891L10.739 13.771L10.832 13.651L10.926 13.531L11.021 13.413L11.117 13.296L11.214 13.18L11.313 13.064L11.413 12.95L11.514 12.836L11.616 12.723L11.72 12.612L11.825 12.501L11.931 12.391L12.038 12.282L12.146 12.174L12.256 12.067L12.366 11.961L12.478 11.857L12.591 11.753L12.705 11.65L12.82 11.549L12.937 11.448L13.054 11.348L13.172 11.25L13.292 11.153L13.412 11.056L13.534 10.961L13.657 10.868L13.781 10.775L13.905 10.683L14.031 10.593L14.158 10.503L14.286 10.416L14.414 10.329L14.544 10.243L14.674 10.159L14.806 10.076L14.939 9.994L15.072 9.914L15.206 9.834L15.341 9.756L15.477 9.679L15.614 9.604L15.752 9.53L15.891 9.457L16.031 9.385L16.171 9.315L16.311 9.246L16.453 9.179L16.596 9.112L16.739 9.048L16.883 8.984L17.028 8.922L17.173 8.862L17.32 8.802L17.466 8.744L17.614 8.688L17.762 8.633L17.912 8.579L18.061 8.527L18.211 8.477L18.361 8.427L18.513 8.379L18.664 8.333L18.817 8.288L18.97 8.245L19.123 8.203L19.277 8.163L19.432 8.123L19.587 8.086L19.742 8.05L19.898 8.016L20.054 7.983L20.211 7.951L20.368 7.921L20.526 7.893L20.684 7.866L20.842 7.841L21.001 7.817L21.16 7.795L21.319 7.775L21.378 7.767ZM21.445 13.437L21.4 9.571L21.27 9.589L21.13 9.61L20.99 9.633L20.85 9.656L20.71 9.681L20.571 9.708L20.432 9.736L20.294 9.765L20.156 9.795L20.019 9.827L19.882 9.86L19.745 9.895L19.608 9.931L19.478 9.966L19.338 10.006L19.203 10.046L19.068 10.086L18.935 10.129L18.801 10.173L18.669 10.218L18.536 10.264L18.405 10.311L18.274 10.36L18.144 10.41L18.014 10.46L17.884 10.513L17.756 10.567L17.628 10.621L17.501 10.677L17.374 10.735L17.248 10.793L17.123 10.853L16.998 10.913L16.874 10.976L16.752 11.039L16.629 11.103L16.508 11.169L16.386 11.235L16.266 11.303L16.147 11.372L16.029 11.442L15.911 11.513L15.794 11.585L15.678 11.659L15.563 11.733L15.448 11.809L15.335 11.885L15.222 11.963L15.11 12.042L15 12.122L14.89 12.202L14.78 12.284L14.672 12.367L14.565 12.45L14.458 12.535L14.353 12.621L14.248 12.708L14.145 12.796L14.042 12.884L13.941 12.974L13.841 13.064L13.741 13.156L13.642 13.248L13.545 13.341L13.448 13.436L13.353 13.531L13.258 13.626L13.165 13.723L13.073 13.821L12.982 13.919L12.892 14.019L12.802 14.119L12.714 14.219L12.628 14.321L12.542 14.424L12.457 14.527L12.374 14.631L12.292 14.735L12.21 14.841L12.13 14.947L12.051 15.054L11.973 15.162L11.897 15.27L11.821 15.379L11.747 15.489L11.674 15.599L11.602 15.709L11.531 15.821L11.461 15.933L11.393 16.046L11.326 16.159L11.26 16.273L11.195 16.387L11.132 16.502L11.069 16.618L11.009 16.734L10.949 16.851L10.889 16.968L10.833 17.085L10.776 17.203L10.722 17.322L10.668 17.441L10.616 17.561L10.565 17.68L10.515 17.8L10.467 17.92L10.419 18.042L10.373 18.163L10.329 18.285L10.285 18.407L10.243 18.529L10.203 18.652L10.163 18.775L10.124 18.899L10.087 19.022L10.052 19.146L10.018 19.27L9.984 19.395L9.953 19.519L9.923 19.644L9.893 19.769L9.865 19.895L9.839 20.02L9.813 20.146L9.79 20.271L9.767 20.397L9.746 20.523L9.726 20.65L9.706 20.776L9.69 20.902L9.673 21.029L9.659 21.155L9.645 21.282L9.633 21.408L9.623 21.535L9.613 21.661L9.605 21.788L9.598 21.915L9.592 22.041L9.588 22.168L9.585 22.294L9.583 22.42V22.673L9.586 22.799L9.589 22.925L9.594 23.051L9.6 23.177L9.607 23.302L9.616 23.427L9.626 23.553L9.637 23.678L9.65 23.803L9.663 23.927L9.678 24.052L9.694 24.176L9.712 24.3L9.731 24.423L9.751 24.546L9.772 24.67L9.795 24.792L9.818 24.915L9.843 25.037L9.87 25.159L9.897 25.28L9.926 25.401L9.956 25.521L9.986 25.642L10.019 25.762L10.053 25.882L10.088 26L10.124 26.119L10.161 26.237L10.199 26.355L10.239 26.472L10.279 26.589L10.321 26.705L10.364 26.821L10.408 26.936L10.454 27.051L10.5 27.165L10.547 27.279L10.597 27.392L10.647 27.505L10.697 27.616L10.749 27.728L10.802 27.838L10.856 27.948L10.912 28.058L10.968 28.168L11.026 28.276L11.084 28.383L11.144 28.49L11.204 28.597L11.266 28.702L11.329 28.807L11.393 28.911L11.458 29.015L11.524 29.118L11.59 29.22L11.658 29.321L11.728 29.421L11.797 29.521L11.867 29.621L11.939 29.719L12.012 29.816L12.086 29.913L12.16 30.009L12.236 30.104L12.312 30.199L12.389 30.292L12.468 30.385L12.547 30.476L12.627 30.567L12.707 30.657L12.789 30.747L12.872 30.835L12.955 30.923L13.039 31.009L13.124 31.095L13.21 31.18L13.297 31.264L13.384 31.347L13.472 31.429L13.562 31.509L13.652 31.589L13.742 31.669L13.833 31.747L13.925 31.825L14.018 31.901L14.111 31.976L14.205 32.051L14.3 32.124L14.396 32.197L14.492 32.268L14.588 32.338L14.686 32.408L14.784 32.476L14.883 32.544L14.982 32.61L15.082 32.675L15.182 32.74L15.284 32.803L15.385 32.865L15.487 32.926L15.59 32.986L15.693 33.046L15.797 33.104L15.901 33.16L16.006 33.216L16.112 33.271L16.217 33.325L16.324 33.377L16.43 33.429L16.538 33.479L16.645 33.529L16.753 33.577L16.861 33.624L16.971 33.67L17.079 33.715L17.189 33.759L17.299 33.802L17.409 33.843L17.519 33.883L17.631 33.923L17.741 33.961L17.853 33.998L17.965 34.034L18.077 34.069L18.19 34.103L18.302 34.136L18.415 34.167L18.528 34.197L18.641 34.227L18.755 34.255L18.869 34.282L18.983 34.307L19.097 34.332L19.211 34.356L19.325 34.378L19.44 34.399L19.554 34.419L19.669 34.439L19.784 34.456L19.899 34.473L20.014 34.488L20.129 34.503L20.244 34.516L20.359 34.528L20.474 34.538L20.589 34.548L20.705 34.558L20.82 34.565L20.935 34.571L21.05 34.576L21.165 34.58L21.28 34.583L21.395 34.585H21.625L21.739 34.584L21.854 34.581L21.968 34.577L22.083 34.573L22.197 34.567L22.311 34.559L22.425 34.551L22.539 34.541L22.652 34.531L22.765 34.52L22.878 34.507L22.991 34.493L23.104 34.478L23.216 34.462L23.328 34.445L23.44 34.427L23.551 34.407L23.663 34.387L23.773 34.366L23.884 34.344L23.994 34.32L24.104 34.295L24.214 34.27L24.324 34.243L24.432 34.215L24.54 34.186L24.649 34.156L24.756 34.126L24.864 34.094L24.97 34.061L25.077 34.027L25.183 33.992L25.288 33.956L25.393 33.919L25.498 33.881L25.602 33.841L25.706 33.801L25.809 33.761L25.912 33.719L26.014 33.676L26.115 33.632L26.216 33.587L26.316 33.541L26.416 33.495L26.516 33.447L26.615 33.399L26.713 33.349L26.811 33.299L26.908 33.247L27.004 33.195L27.1 33.142L27.195 33.087L27.289 33.032L27.383 32.976L27.476 32.92L27.569 32.862L27.661 32.804L27.751 32.744L27.842 32.684L27.932 32.624L28.022 32.561L28.109 32.499L28.197 32.435L28.284 32.371L28.37 32.306L28.456 32.24L28.54 32.174L28.624 32.106L28.707 32.038L28.789 31.969L28.871 31.899L28.952 31.829L29.032 31.758L29.112 31.686L29.19 31.613L29.267 31.54L29.344 31.466L29.42 31.392L29.495 31.316L29.569 31.24L29.642 31.164L29.715 31.086L29.787 31.008L29.857 30.93L29.927 30.85L29.997 30.77L30.065 30.69L30.132 30.61L30.198 30.527L30.264 30.445L30.328 30.362L30.392 30.279L30.455 30.195L30.517 30.111L30.577 30.026L30.637 29.94L30.697 29.854L30.755 29.768L30.812 29.681L30.868 29.593L30.923 29.505L30.978 29.417L31.031 29.328L31.083 29.238L31.135 29.148L31.185 29.059L31.235 28.969L31.283 28.877L31.331 28.786L31.377 28.694L31.423 28.602L31.467 28.509L31.511 28.417L31.554 28.323L31.595 28.23L31.635 28.136L31.675 28.042L31.714 27.948L31.751 27.853L31.788 27.758L31.824 27.663L31.858 27.567L31.892 27.471L31.924 27.375L31.956 27.279L31.986 27.182L32.016 27.086L32.044 26.989L32.071 26.891L32.098 26.794L32.123 26.697L32.147 26.599L32.171 26.502L32.193 26.403L32.214 26.305L32.234 26.207L32.254 26.109L32.272 26.011L32.289 25.912L32.305 25.814L32.32 25.715L32.334 25.617L32.347 25.518L32.359 25.42L32.37 25.32L32.38 25.222L32.389 25.123L32.397 25.024L32.404 24.926L32.41 24.827L32.414 24.729L32.418 24.63L32.421 24.531L32.423 24.433V24.236L32.422 24.138L32.42 24.04L32.416 23.942L32.412 23.844L32.407 23.746L32.401 23.649L32.393 23.551L32.385 23.454L32.375 23.357L32.365 23.26L32.355 23.163L32.342 23.067L32.329 22.97L32.314 22.874L32.299 22.778L32.283 22.683L32.266 22.588L32.248 22.493L32.228 22.398L32.208 22.303L32.188 22.209L32.166 22.115L32.143 22.021L32.119 21.928L32.095 21.835L32.069 21.743L32.043 21.65L32.015 21.558L31.987 21.467L31.957 21.375L31.927 21.285L31.896 21.195L31.864 21.104L31.831 21.014L31.797 20.925L31.762 20.836L31.727 20.748L31.69 20.66L31.653 20.572L31.615 20.485L31.575 20.399L31.535 20.313L31.495 20.227L31.453 20.142L31.411 20.057L31.367 19.973L31.324 19.889L31.279 19.806L31.233 19.724L31.186 19.642L31.139 19.56L31.091 19.48L31.041 19.398L30.992 19.318L30.942 19.239L30.891 19.161L30.839 19.083L30.786 19.005L30.732 18.928L30.678 18.852L30.623 18.776L30.568 18.701L30.511 18.626L30.454 18.553L30.396 18.479L30.338 18.407L30.278 18.335L30.218 18.264L30.158 18.193L30.098 18.123L30.035 18.053L29.973 17.985L29.91 17.917L29.846 17.85L29.781 17.783L29.716 17.718L29.651 17.652L29.585 17.588L29.518 17.525L29.45 17.461L29.382 17.399L29.314 17.338L29.244 17.278L29.174 17.217L29.104 17.157L29.034 17.099L28.963 17.041L28.891 16.985L28.818 16.928L28.746 16.873L28.673 16.818L28.598 16.764L28.524 16.711L28.449 16.659L28.374 16.607L28.299 16.557L28.223 16.507L28.146 16.457L28.069 16.409L27.992 16.362L27.914 16.315L27.835 16.269L27.757 16.224L27.678 16.18L27.598 16.136L27.518 16.094L27.438 16.052L27.358 16.012L27.278 15.971L27.196 15.931L27.116 15.893L27.034 15.856L26.951 15.819L26.869 15.783L26.787 15.748L26.704 15.714L26.62 15.68L26.537 15.648L26.454 15.616L26.37 15.586L26.286 15.556L26.201 15.526L26.117 15.498L26.032 15.471L25.947 15.445L25.862 15.419L25.777 15.394L25.692 15.37L25.606 15.347L25.52 15.325L25.435 15.305L25.348 15.284L25.262 15.264L25.176 15.246L25.09 15.228L25.003 15.211L24.917 15.195L24.83 15.18L24.744 15.165L24.657 15.152L24.571 15.139L24.484 15.128L24.397 15.117L24.31 15.107L24.223 15.097L24.137 15.09L24.05 15.082L23.963 15.076L23.876 15.07L23.79 15.065L23.703 15.061L23.616 15.058L23.53 15.056L23.444 15.055H23.298L23.343 18.83H23.42L23.47 18.832L23.519 18.834L23.569 18.836L23.619 18.839L23.669 18.842L23.719 18.845L23.769 18.85L23.819 18.855L23.869 18.86L23.919 18.866L23.969 18.872L24.019 18.879L24.069 18.886L24.119 18.894L24.169 18.903L24.219 18.912L24.27 18.922L24.32 18.932L24.37 18.942L24.42 18.953L24.47 18.965L24.52 18.977L24.57 18.99L24.62 19.003L24.67 19.017L24.72 19.031L24.77 19.046L24.82 19.062L24.869 19.078L24.919 19.094L24.967 19.111L25.017 19.129L25.066 19.147L25.115 19.165L25.164 19.185L25.213 19.205L25.261 19.225L25.31 19.245L25.358 19.266L25.406 19.288L25.454 19.31L25.502 19.333L25.55 19.357L25.597 19.38L25.645 19.405L25.692 19.43L25.739 19.455L25.786 19.481L25.832 19.508L25.879 19.535L25.925 19.562L25.971 19.591L26.017 19.619L26.062 19.649L26.107 19.678L26.152 19.708L26.197 19.738L26.242 19.77L26.286 19.801L26.33 19.833L26.373 19.866L26.417 19.899L26.46 19.933L26.503 19.967L26.545 20.001L26.588 20.036L26.63 20.072L26.671 20.108L26.712 20.144L26.754 20.181L26.794 20.219L26.834 20.257L26.874 20.295L26.914 20.335L26.954 20.373L26.992 20.413L27.031 20.453L27.069 20.494L27.107 20.535L27.144 20.577L27.181 20.619L27.218 20.661L27.254 20.704L27.29 20.748L27.325 20.791L27.36 20.836L27.395 20.88L27.429 20.925L27.463 20.971L27.496 21.017L27.529 21.063L27.561 21.109L27.593 21.157L27.625 21.204L27.656 21.252L27.686 21.3L27.716 21.349L27.746 21.398L27.776 21.448L27.804 21.497L27.833 21.547L27.86 21.597L27.888 21.648L27.914 21.7L27.941 21.751L27.966 21.803L27.992 21.855L28.016 21.908L28.041 21.96L28.064 22.014L28.088 22.067L28.11 22.121L28.132 22.175L28.154 22.229L28.174 22.284L28.195 22.339L28.215 22.394L28.235 22.45L28.253 22.506L28.271 22.562L28.289 22.618L28.306 22.675L28.323 22.732L28.338 22.789L28.354 22.846L28.369 22.904L28.383 22.962L28.396 23.02L28.409 23.078L28.422 23.137L28.434 23.195L28.444 23.255L28.455 23.313L28.465 23.373L28.475 23.433L28.483 23.492L28.492 23.552L28.499 23.612L28.506 23.672L28.512 23.732L28.518 23.792L28.523 23.853L28.527 23.913L28.531 23.975L28.534 24.035L28.536 24.097L28.538 24.158L28.539 24.219L28.54 24.281V24.404L28.538 24.465L28.536 24.527L28.533 24.589L28.53 24.651L28.525 24.713L28.521 24.775L28.515 24.836L28.509 24.899L28.503 24.961L28.495 25.022L28.487 25.085L28.479 25.147L28.469 25.209L28.459 25.271L28.449 25.333L28.437 25.395L28.425 25.457L28.413 25.519L28.399 25.58L28.385 25.642L28.371 25.704L28.356 25.766L28.339 25.827L28.323 25.889L28.306 25.95L28.288 26.012L28.268 26.073L28.25 26.134L28.23 26.195L28.209 26.256L28.188 26.317L28.165 26.377L28.143 26.438L28.119 26.498L28.095 26.558L28.071 26.618L28.045 26.678L28.019 26.738L27.993 26.798L27.965 26.858L27.937 26.916L27.909 26.976L27.879 27.034L27.849 27.093L27.819 27.151L27.788 27.209L27.756 27.267L27.723 27.324L27.69 27.382L27.656 27.439L27.622 27.495L27.587 27.552L27.551 27.608L27.514 27.664L27.477 27.72L27.44 27.775L27.401 27.83L27.363 27.885L27.323 27.939L27.283 27.993L27.242 28.047L27.201 28.101L27.159 28.154L27.116 28.206L27.073 28.259L27.029 28.311L26.985 28.362L26.939 28.414L26.894 28.464L26.848 28.514L26.801 28.564L26.754 28.614L26.706 28.664L26.657 28.713L26.608 28.761L26.558 28.809L26.508 28.856L26.458 28.903L26.406 28.95L26.354 28.996L26.302 29.042L26.249 29.087L26.195 29.132L26.141 29.176L26.086 29.22L26.031 29.263L25.976 29.306L25.92 29.348L25.863 29.39L25.806 29.431L25.748 29.471L25.69 29.512L25.631 29.552L25.572 29.591L25.512 29.629L25.452 29.668L25.392 29.705L25.331 29.742L25.27 29.778L25.208 29.814L25.145 29.849L25.082 29.884L25.019 29.918L24.955 29.951L24.891 29.984L24.827 30.016L24.762 30.048L24.696 30.079L24.631 30.109L24.565 30.139L24.498 30.169L24.431 30.197L24.364 30.225L24.296 30.252L24.228 30.279L24.159 30.305L24.091 30.33L24.021 30.355L23.952 30.379L23.882 30.402L23.812 30.425L23.742 30.447L23.672 30.467L23.6 30.489L23.529 30.509L23.457 30.528L23.385 30.546L23.313 30.564L23.241 30.581L23.168 30.598L23.095 30.613L23.022 30.629L22.948 30.643L22.875 30.657L22.801 30.669L22.726 30.682L22.652 30.693L22.577 30.703L22.503 30.713L22.428 30.723L22.353 30.732L22.277 30.739L22.202 30.746L22.126 30.752L22.05 30.758L21.975 30.763L21.899 30.767L21.822 30.77L21.746 30.773L21.67 30.774L21.593 30.775H21.44L21.363 30.774L21.286 30.772L21.209 30.769L21.132 30.765L21.055 30.761L20.978 30.756L20.901 30.75L20.824 30.743L20.746 30.736L20.669 30.728L20.592 30.718L20.515 30.708L20.438 30.698L20.361 30.687L20.284 30.675L20.207 30.662L20.13 30.648L20.053 30.633L19.976 30.618L19.899 30.602L19.822 30.585L19.746 30.568L19.669 30.549L19.593 30.53L19.517 30.51L19.44 30.49L19.364 30.468L19.289 30.446L19.213 30.423L19.137 30.399L19.062 30.374L18.986 30.349L18.911 30.322L18.836 30.295L18.762 30.268L18.687 30.239L18.613 30.209L18.539 30.179L18.465 30.149L18.392 30.117L18.319 30.085L18.245 30.052L18.173 30.018L18.1 29.983L18.028 29.948L17.956 29.912L17.884 29.875L17.814 29.837L17.742 29.799L17.672 29.759L17.602 29.719L17.531 29.679L17.461 29.637L17.392 29.595L17.323 29.552L17.255 29.509L17.186 29.464L17.119 29.419L17.051 29.374L16.984 29.327L16.918 29.28L16.851 29.232L16.786 29.183L16.72 29.134L16.656 29.084L16.591 29.034L16.527 28.982L16.464 28.93L16.401 28.877L16.338 28.823L16.276 28.769L16.215 28.714L16.154 28.659L16.094 28.603L16.034 28.546L15.974 28.488L15.915 28.43L15.857 28.371L15.799 28.312L15.742 28.252L15.685 28.192L15.629 28.13L15.573 28.068L15.518 28.006L15.464 27.942L15.41 27.879L15.357 27.814L15.304 27.749L15.253 27.684L15.201 27.618L15.151 27.551L15.101 27.484L15.051 27.416L15.003 27.347L14.954 27.278L14.907 27.209L14.86 27.139L14.814 27.069L14.769 26.997L14.724 26.926L14.681 26.854L14.637 26.781L14.595 26.708L14.553 26.634L14.512 26.56L14.472 26.485L14.432 26.41L14.392 26.335L14.355 26.259L14.317 26.182L14.281 26.105L14.245 26.028L14.21 25.95L14.175 25.872L14.142 25.793L14.109 25.714L14.077 25.634L14.046 25.555L14.016 25.475L13.986 25.395L13.957 25.313L13.929 25.232L13.902 25.15L13.876 25.068L13.85 24.986L13.825 24.903L13.801 24.82L13.778 24.736L13.756 24.653L13.735 24.569L13.715 24.484L13.695 24.4L13.676 24.315L13.658 24.23L13.641 24.144L13.625 24.059L13.61 23.973L13.595 23.887L13.582 23.801L13.569 23.714L13.557 23.627L13.547 23.54L13.537 23.453L13.527 23.366L13.519 23.278L13.512 23.191L13.506 23.103L13.5 23.015L13.495 22.927L13.492 22.839L13.489 22.75L13.487 22.662V22.396L13.489 22.306L13.492 22.218L13.495 22.128L13.5 22.04L13.505 21.95L13.512 21.862L13.519 21.772L13.528 21.684L13.537 21.594L13.547 21.505L13.558 21.416L13.57 21.327L13.583 21.238L13.597 21.149L13.612 21.06L13.628 20.972L13.644 20.882L13.662 20.794L13.681 20.705L13.701 20.617L13.721 20.529L13.741 20.44L13.764 20.352L13.788 20.264L13.812 20.176L13.837 20.089L13.863 20.001L13.89 19.914L13.918 19.827L13.946 19.74L13.976 19.653L14.007 19.566L14.039 19.48L14.071 19.394L14.105 19.308L14.139 19.222L14.174 19.137L14.211 19.052L14.248 18.967L14.286 18.883L14.325 18.798L14.365 18.715L14.405 18.631L14.447 18.548L14.489 18.465L14.533 18.382L14.577 18.3L14.622 18.218L14.669 18.137L14.716 18.056L14.763 17.976L14.813 17.895L14.862 17.815L14.912 17.735L14.964 17.656L15.016 17.578L15.069 17.5L15.123 17.422L15.178 17.345L15.234 17.268L15.29 17.192L15.348 17.116L15.406 17.041L15.465 16.966L15.525 16.892L15.585 16.818L15.647 16.745L15.709 16.672L15.772 16.6L15.836 16.529L15.901 16.458L15.966 16.388L16.033 16.318L16.1 16.248L16.167 16.18L16.236 16.112L16.306 16.044L16.376 15.978L16.446 15.912L16.518 15.846L16.59 15.781L16.663 15.717L16.737 15.654L16.812 15.591L16.887 15.529L16.963 15.467L17.04 15.407L17.117 15.347L17.195 15.287L17.274 15.229L17.354 15.171L17.434 15.114L17.514 15.057L17.595 15.001L17.677 14.947L17.76 14.892L17.843 14.839L17.927 14.787L18.012 14.735L18.097 14.684L18.183 14.634L18.269 14.584L18.356 14.536L18.444 14.488L18.532 14.441L18.62 14.395L18.71 14.349L18.8 14.305L18.89 14.262L18.98 14.219L19.072 14.177L19.163 14.136L19.256 14.096L19.349 14.056L19.442 14.018L19.536 13.981L19.63 13.944L19.725 13.908L19.82 13.874L19.915 13.84L20.011 13.807L20.108 13.775L20.205 13.744L20.302 13.714L20.4 13.684L20.498 13.656L20.596 13.629L20.695 13.602L20.794 13.577L20.894 13.552L20.994 13.529L21.094 13.506L21.194 13.485L21.294 13.465L21.396 13.445L21.446 13.435L21.445 13.437ZM22.687 20.697L21.535 20.972L21.467 15.262L21.413 15.274L21.331 15.294L21.249 15.314L21.168 15.334L21.087 15.356L21.007 15.379L20.926 15.402L20.846 15.426L20.766 15.451L20.688 15.476L20.608 15.502L20.53 15.529L20.452 15.557L20.374 15.585L20.297 15.615L20.219 15.645L20.143 15.675L20.067 15.706L19.99 15.739L19.915 15.771L19.84 15.805L19.766 15.839L19.692 15.874L19.618 15.909L19.545 15.946L19.472 15.983L19.4 16.02L19.328 16.058L19.256 16.098L19.186 16.137L19.116 16.177L19.046 16.218L18.976 16.26L18.907 16.302L18.839 16.345L18.771 16.388L18.704 16.432L18.637 16.477L18.571 16.522L18.505 16.568L18.44 16.614L18.375 16.661L18.311 16.709L18.248 16.757L18.185 16.807L18.123 16.855L18.061 16.905L18.001 16.955L17.939 17.007L17.879 17.058L17.82 17.11L17.762 17.163L17.704 17.216L17.646 17.27L17.589 17.324L17.533 17.378L17.477 17.433L17.422 17.489L17.368 17.545L17.315 17.601L17.261 17.659L17.209 17.716L17.157 17.774L17.107 17.832L17.056 17.891L17.006 17.951L16.957 18.009L16.909 18.069L16.861 18.13L16.814 18.19L16.768 18.252L16.722 18.314L16.677 18.376L16.633 18.438L16.589 18.501L16.547 18.564L16.504 18.627L16.463 18.691L16.423 18.755L16.383 18.819L16.343 18.884L16.304 18.949L16.267 19.014L16.229 19.08L16.193 19.146L16.157 19.212L16.122 19.278L16.088 19.345L16.054 19.412L16.022 19.479L15.99 19.547L15.958 19.614L15.928 19.682L15.898 19.75L15.868 19.819L15.841 19.887L15.813 19.956L15.786 20.025L15.76 20.094L15.735 20.163L15.71 20.233L15.686 20.303L15.663 20.372L15.641 20.442L15.619 20.512L15.599 20.582L15.579 20.652L15.559 20.722L15.54 20.792L15.522 20.863L15.505 20.933L15.489 21.005L15.473 21.075L15.458 21.146L15.444 21.217L15.431 21.288L15.418 21.359L15.406 21.43L15.396 21.501L15.385 21.572L15.375 21.643L15.367 21.714L15.358 21.785L15.351 21.856L15.344 21.927L15.339 21.998L15.333 22.069L15.329 22.14L15.325 22.211L15.322 22.282L15.32 22.352L15.319 22.424L15.318 22.494V22.635L15.32 22.705L15.322 22.775L15.325 22.845L15.329 22.915L15.333 22.985L15.338 23.055L15.344 23.125L15.351 23.195L15.358 23.264L15.366 23.333L15.374 23.402L15.384 23.47L15.394 23.539L15.404 23.607L15.416 23.675L15.428 23.744L15.441 23.811L15.454 23.879L15.468 23.946L15.483 24.013L15.499 24.08L15.515 24.147L15.532 24.213L15.55 24.279L15.568 24.345L15.586 24.411L15.606 24.476L15.626 24.541L15.646 24.606L15.668 24.67L15.69 24.734L15.713 24.798L15.736 24.861L15.76 24.925L15.785 24.988L15.81 25.05L15.836 25.112L15.862 25.174L15.889 25.236L15.917 25.296L15.945 25.358L15.974 25.418L16.004 25.478L16.034 25.538L16.064 25.598L16.094 25.656L16.126 25.715L16.159 25.773L16.192 25.831L16.225 25.888L16.259 25.945L16.293 26.001L16.328 26.057L16.364 26.113L16.4 26.168L16.436 26.223L16.473 26.278L16.511 26.331L16.549 26.385L16.587 26.438L16.627 26.491L16.667 26.543L16.707 26.594L16.747 26.645L16.787 26.696L16.829 26.746L16.871 26.796L16.914 26.846L16.956 26.894L17 26.942L17.043 26.99L17.087 27.037L17.132 27.084L17.177 27.13L17.222 27.176L17.268 27.221L17.314 27.266L17.361 27.31L17.408 27.354L17.455 27.397L17.503 27.439L17.551 27.481L17.6 27.523L17.649 27.563L17.698 27.604L17.748 27.644L17.798 27.684L17.848 27.722L17.898 27.76L17.949 27.798L18 27.835L18.052 27.872L18.104 27.908L18.156 27.943L18.208 27.978L18.261 28.012L18.314 28.046L18.367 28.079L18.42 28.111L18.474 28.143L18.528 28.175L18.582 28.205L18.637 28.235L18.692 28.265L18.746 28.295L18.802 28.323L18.857 28.351L18.913 28.378L18.968 28.404L19.024 28.431L19.08 28.456L19.137 28.481L19.193 28.505L19.25 28.529L19.306 28.552L19.363 28.575L19.421 28.596L19.478 28.618L19.535 28.638L19.593 28.658L19.65 28.678L19.708 28.697L19.766 28.715L19.824 28.733L19.882 28.75L19.94 28.766L19.998 28.782L20.057 28.797L20.115 28.812L20.173 28.826L20.232 28.839L20.29 28.852L20.349 28.864L20.407 28.876L20.467 28.887L20.525 28.897L20.583 28.907L20.643 28.917L20.701 28.925L20.759 28.933L20.818 28.941L20.877 28.948L20.935 28.954L20.994 28.96L21.052 28.965L21.111 28.969L21.169 28.973L21.228 28.976L21.286 28.979L21.344 28.981L21.403 28.983H21.461L21.519 28.984H21.635L21.692 28.982L21.75 28.98L21.808 28.978L21.865 28.974L21.923 28.971L21.98 28.967L22.037 28.962L22.093 28.957L22.15 28.951L22.207 28.944L22.263 28.938L22.319 28.93L22.375 28.922L22.431 28.913L22.487 28.904L22.543 28.894L22.598 28.884L22.653 28.874L22.708 28.862L22.763 28.85L22.817 28.838L22.872 28.825L22.926 28.812L22.98 28.798L23.033 28.784L23.086 28.769L23.14 28.753L23.192 28.737L23.245 28.721L23.297 28.704L23.349 28.686L23.401 28.669L23.453 28.65L23.504 28.631L23.555 28.612L23.605 28.592L23.656 28.572L23.706 28.552L23.756 28.53L23.806 28.508L23.855 28.486L23.904 28.463L23.952 28.44L24 28.417L24.048 28.393L24.096 28.369L24.143 28.344L24.19 28.319L24.236 28.293L24.282 28.267L24.328 28.241L24.374 28.214L24.419 28.186L24.463 28.159L24.508 28.131L24.552 28.102L24.596 28.073L24.639 28.044L24.682 28.014L24.724 27.984L24.766 27.954L24.808 27.924L24.849 27.892L24.89 27.861L24.93 27.829L24.97 27.797L25.01 27.764L25.05 27.732L25.088 27.698L25.127 27.665L25.165 27.631L25.203 27.597L25.24 27.562L25.276 27.528L25.313 27.493L25.349 27.457L25.384 27.422L25.419 27.386L25.454 27.349L25.488 27.313L25.522 27.276L25.555 27.239L25.588 27.202L25.62 27.164L25.652 27.126L25.683 27.088L25.714 27.05L25.744 27.012L25.774 26.972L25.804 26.934L25.834 26.894L25.862 26.855L25.89 26.815L25.918 26.775L25.945 26.735L25.972 26.695L25.998 26.655L26.024 26.615L26.05 26.573L26.074 26.533L26.099 26.491L26.123 26.45L26.146 26.408L26.169 26.367L26.192 26.325L26.214 26.283L26.235 26.241L26.256 26.199L26.277 26.156L26.297 26.114L26.317 26.071L26.336 26.029L26.354 25.986L26.373 25.943L26.39 25.9L26.407 25.857L26.424 25.814L26.44 25.77L26.456 25.727L26.471 25.684L26.486 25.64L26.5 25.597L26.514 25.553L26.527 25.51L26.54 25.466L26.552 25.422L26.564 25.378L26.576 25.335L26.586 25.291L26.597 25.247L26.607 25.203L26.617 25.16L26.625 25.115L26.634 25.072L26.642 25.028L26.649 24.984L26.657 24.94L26.663 24.896L26.669 24.852L26.675 24.808L26.68 24.765L26.685 24.721L26.689 24.677L26.693 24.634L26.696 24.59L26.699 24.547L26.701 24.503L26.703 24.46L26.705 24.417V24.374L26.706 24.33V24.245L26.705 24.202L26.704 24.159L26.702 24.116L26.7 24.074L26.697 24.031L26.694 23.989L26.691 23.947L26.687 23.905L26.682 23.863L26.678 23.821L26.672 23.779L26.667 23.738L26.661 23.697L26.654 23.656L26.647 23.614L26.64 23.574L26.632 23.533L26.624 23.493L26.616 23.452L26.606 23.412L26.597 23.372L26.587 23.332L26.577 23.292L26.567 23.252L26.556 23.213L26.544 23.173L26.533 23.135L26.521 23.096L26.508 23.058L26.495 23.02L26.482 22.982L26.468 22.944L26.454 22.907L26.44 22.869L26.425 22.832L26.41 22.795L26.395 22.758L26.379 22.722L26.363 22.686L26.347 22.65L26.33 22.614L26.313 22.579L26.295 22.543L26.277 22.508L26.259 22.474L26.241 22.439L26.222 22.405L26.203 22.371L26.183 22.338L26.163 22.304L26.143 22.272L26.123 22.239L26.103 22.206L26.082 22.174L26.061 22.142L26.039 22.11L26.018 22.08L25.995 22.048L25.973 22.018L25.951 21.988L25.928 21.957L25.905 21.927L25.881 21.897L25.858 21.869L25.834 21.839L25.81 21.811L25.785 21.783L25.761 21.755L25.736 21.727L25.711 21.7L25.685 21.673L25.66 21.646L25.634 21.62L25.608 21.594L25.582 21.568L25.556 21.543L25.529 21.518L25.502 21.493L25.475 21.469L25.448 21.445L25.421 21.421L25.393 21.398L25.366 21.375L25.338 21.352L25.31 21.33L25.281 21.308L25.253 21.286L25.224 21.265L25.196 21.244L25.166 21.224L25.138 21.204L25.108 21.184L25.08 21.164L25.05 21.144L25.02 21.126L24.991 21.107L24.961 21.089L24.931 21.071L24.901 21.054L24.871 21.037L24.841 21.02L24.811 21.003L24.781 20.987L24.751 20.972L24.72 20.956L24.689 20.941L24.659 20.927L24.628 20.912L24.597 20.898L24.566 20.885L24.535 20.871L24.504 20.859L24.473 20.846L24.442 20.834L24.41 20.822L24.38 20.811L24.348 20.799L24.317 20.789L24.285 20.779L24.255 20.769L24.223 20.759L24.192 20.749L24.16 20.74L24.129 20.731L24.097 20.723L24.067 20.715L24.035 20.707L24.003 20.7L23.972 20.693L23.941 20.686L23.909 20.68L23.879 20.674L23.847 20.669L23.815 20.663L23.785 20.658L23.753 20.654L23.723 20.649L23.691 20.645L23.66 20.642L23.63 20.639L23.598 20.636L23.568 20.633L23.537 20.631L23.506 20.629L23.476 20.627L23.445 20.626L23.415 20.625L23.384 20.624H23.233L23.203 20.626L23.173 20.628L23.143 20.629L23.114 20.631L23.085 20.634L23.055 20.636L23.027 20.639L22.997 20.642L22.969 20.646L22.939 20.65L22.911 20.654L22.883 20.658L22.854 20.663L22.826 20.668L22.798 20.673L22.77 20.678L22.742 20.684L22.715 20.69L22.687 20.696V20.697Z" fill="#43505C"/>
</svg>
