<svg width="70" height="44" viewBox="0 0 70 44" fill="none" xmlns="http://www.w3.org/2000/svg">
<g clip-path="url(#clip0_13_94)">
<path d="M65.527 5.40898C65.527 5.45898 65.527 5.52398 65.514 5.56198C65.448 6.06198 65.448 6.56198 65.487 7.07598C65.514 7.20398 65.54 7.33198 65.645 7.43498C65.815 7.62698 66.078 7.58898 66.183 7.35798C66.2305 7.24891 66.2397 7.12694 66.209 7.01198C66.078 6.52398 66.052 6.01198 66.039 5.51198V5.40898C66.183 5.39598 66.314 5.38298 66.432 5.38298C66.5141 5.37714 66.5942 5.3554 66.668 5.31898C66.865 5.21598 66.865 4.99898 66.655 4.89498C66.5677 4.85867 66.4735 4.84162 66.379 4.84498C66.051 4.85698 65.724 4.85698 65.396 4.85698C65.278 4.85698 65.159 4.86998 65.041 4.88298C64.976 4.89498 64.897 4.89498 64.845 4.93398C64.753 4.97198 64.7 5.03698 64.7 5.12598C64.713 5.21598 64.753 5.26698 64.845 5.30598C64.899 5.34197 64.9631 5.35983 65.028 5.35698C65.186 5.36998 65.356 5.39598 65.527 5.40898ZM69.134 5.99898C69.134 6.01098 69.147 6.02398 69.147 6.02398C69.2 6.36998 69.252 6.70398 69.292 7.03698C69.305 7.15298 69.318 7.25498 69.397 7.34498C69.567 7.56298 69.829 7.53798 69.947 7.30698C69.9998 7.19471 70.0138 7.0681 69.987 6.94698C69.908 6.56298 69.869 6.17798 69.79 5.80698C69.7381 5.5861 69.6767 5.36756 69.606 5.15198C69.5892 5.08772 69.5521 5.0306 69.5002 4.98915C69.4483 4.9477 69.3844 4.92414 69.318 4.92198C69.2509 4.90952 69.1815 4.91892 69.1201 4.9488C69.0588 4.97868 69.0086 5.02747 68.977 5.08798C68.8992 5.1867 68.8331 5.29408 68.78 5.40798C68.688 5.61398 68.61 5.81798 68.505 6.01098C68.4954 6.05687 68.4774 6.1006 68.452 6.13998C68.439 6.11398 68.426 6.10098 68.426 6.10098C68.256 5.78098 68.098 5.45998 67.927 5.15198C67.901 5.12598 67.888 5.10098 67.875 5.07498C67.796 4.95998 67.705 4.89498 67.56 4.89498C67.4966 4.90177 67.4358 4.92414 67.3831 4.96008C67.3304 4.99601 67.2875 5.04442 67.258 5.10098C67.232 5.15198 67.232 5.19098 67.219 5.24098C67.167 5.65198 67.101 6.06298 67.049 6.47298C67.022 6.70298 67.009 6.93498 67.009 7.16598C66.9984 7.22266 67.0076 7.28125 67.035 7.33198C67.0466 7.38026 67.0732 7.42365 67.1109 7.45597C67.1486 7.48829 67.1955 7.50789 67.245 7.51198C67.376 7.52498 67.468 7.48598 67.508 7.38398C67.5397 7.31889 67.5616 7.24948 67.573 7.17798C67.626 6.94798 67.665 6.72998 67.704 6.51198C67.731 6.38298 67.744 6.28098 67.784 6.13998C67.809 6.18998 67.835 6.22998 67.862 6.26798C67.98 6.42198 68.098 6.57598 68.242 6.70398C68.386 6.80698 68.505 6.79398 68.622 6.67798L68.688 6.61398C68.806 6.43398 68.951 6.25498 69.068 6.07498C69.095 6.04998 69.108 6.02498 69.134 5.99898ZM38.909 5.65998C38.818 5.90398 38.8 6.07998 38.842 6.22598C38.889 6.42398 39.009 6.48898 39.173 6.43898C40.714 6.06598 44.093 7.12398 45.343 7.41898C45.639 7.47998 45.879 7.10798 45.677 6.77398C45.383 6.45098 42.007 5.06698 40.717 4.99098C40.213 4.96298 39.31 4.83598 38.909 5.65998ZM52.113 1.17998C52.278 1.27198 52.369 1.35998 52.415 1.45998C52.482 1.58998 52.447 1.67898 52.333 1.72498C51.315 2.21098 49.959 4.30298 49.413 5.02498C49.28 5.19098 48.973 5.09498 48.928 4.82098C48.937 4.51298 50.138 2.24098 50.808 1.62298C51.072 1.38198 51.508 0.907982 52.113 1.17998ZM44.002 0.149982C44.2 0.00398175 44.405 -0.0470182 44.509 0.0479818C46.046 1.33298 46.861 3.36798 47.365 5.23098C47.385 5.27398 47.385 5.33598 47.37 5.40098C47.364 5.45698 47.323 5.51498 47.257 5.56098C47.187 5.61098 47.126 5.62598 47.097 5.58298C46.424 4.68698 42.577 1.20298 44.002 0.149982ZM11.461 22.428C11.8301 22.1592 12.2303 21.9359 12.653 21.763C13.0965 21.6392 13.568 21.6599 13.999 21.822C14.429 21.984 14.794 22.278 15.039 22.661C15.2573 23.0417 15.3428 23.4841 15.2822 23.9188C15.2215 24.3534 15.0181 24.7556 14.704 25.062C14.461 25.314 14.184 25.534 13.882 25.715C12.534 26.567 11.175 27.371 9.81499 28.222C9.53646 28.4352 9.24155 28.6261 8.93299 28.793C8.46103 29.0227 7.92467 29.0841 7.41299 28.967C6.90436 28.8515 6.45137 28.5636 6.13099 28.152C5.89439 27.8629 5.69422 27.5459 5.53499 27.208C4.24699 24.56 2.90999 21.926 1.66999 19.233C1.09799 18.067 0.632993 16.727 0.179993 15.433C0.0828261 15.2474 0.0233473 15.0444 0.0049833 14.8357C-0.0133807 14.627 0.00973298 14.4167 0.0729927 14.217C0.202822 13.8112 0.486399 13.4723 0.862993 13.273C1.24376 13.0709 1.68731 13.0219 2.10299 13.136C2.51799 13.249 2.87299 13.517 3.08899 13.882C3.75496 14.7468 4.34546 15.6672 4.85399 16.633C6.14199 18.965 7.36999 21.297 8.60999 23.558C8.68199 23.683 8.76199 23.804 8.84899 23.92C9.78013 23.5375 10.6578 23.036 11.46 22.428H11.461ZM24.776 21.614C21.831 24.984 16.894 24.132 14.414 19.795C12.649 16.717 12.339 11.635 16.179 8.42798C17.0035 7.75464 17.9832 7.29782 19.029 7.09898C20.3141 6.91831 21.6237 7.13977 22.778 7.73298C23.9217 8.31947 24.8507 9.25263 25.432 10.399C27.531 14.129 27.232 18.886 24.776 21.614ZM23.584 13.756C23.2666 12.8338 22.6384 12.0507 21.807 11.541C21.3316 11.2105 20.7585 11.0502 20.1806 11.0862C19.6026 11.1221 19.0538 11.3521 18.623 11.739C16.918 13.219 16.56 16.729 17.8 18.816C17.959 19.156 18.19 19.459 18.48 19.702C18.9219 20.0681 19.4697 20.2827 20.0426 20.3142C20.6156 20.3457 21.1836 20.1924 21.663 19.877C22.5831 19.183 23.262 18.2176 23.604 17.117C23.942 16.0228 23.9223 14.8493 23.548 13.767L23.584 13.757V13.756ZM36.795 15.225C36.187 15.3523 35.5533 15.2352 35.031 14.899C34.8069 14.7739 34.6133 14.6007 34.464 14.392C34.3168 14.1854 34.2179 13.9484 34.1747 13.6984C34.1314 13.4485 34.1448 13.192 34.214 12.948C34.284 12.704 34.408 12.478 34.578 12.288C34.874 11.903 35.294 11.628 35.77 11.506C37.0146 11.153 38.2943 10.9381 39.586 10.865C40.1579 10.8006 40.7322 10.9637 41.185 11.319C41.407 11.495 41.591 11.712 41.725 11.959C41.861 12.205 41.944 12.475 41.971 12.754C42.343 14.121 42.384 15.554 42.09 16.939C41.017 21.416 37.32 22.955 33.17 21.521C32.0111 21.1416 30.9906 20.4276 30.237 19.469C29.2435 18.3262 28.5364 16.9633 28.174 15.493C27.8828 14.189 27.9151 12.8336 28.268 11.545C28.6228 10.2503 29.2856 9.0608 30.2 8.07798C31.0777 6.99912 32.2086 6.15404 33.492 5.61798C34.3093 5.17886 35.2591 5.05435 36.162 5.26798C36.368 5.32398 36.554 5.43198 36.702 5.58198C36.8134 5.69214 36.9009 5.82404 36.959 5.96949C37.0172 6.11493 37.0448 6.27079 37.0401 6.42736C37.0354 6.58393 36.9985 6.73786 36.9318 6.87956C36.865 7.02126 36.7698 7.14769 36.652 7.25098C36.3535 7.51518 36.03 7.74963 35.686 7.95098C34.6293 8.60721 33.7064 9.45751 32.966 10.457C32.4849 11.0986 32.1526 11.8391 31.993 12.625C31.8345 13.4083 31.8537 14.2171 32.049 14.992C32.3228 16.0548 32.9234 17.0048 33.766 17.708C36.389 20.04 39.799 17.79 39.203 14.608C38.333 14.818 37.571 15.038 36.795 15.225ZM52.822 21.8C48.946 24.132 44.534 21.8 43.569 16.904C42.865 13.406 44.201 8.50998 48.875 6.64398C49.8717 6.25551 50.949 6.11947 52.011 6.24798C53.2821 6.47336 54.4521 7.08719 55.36 8.00498C56.2568 8.91221 56.8417 10.0813 57.03 11.343C57.818 15.505 56.03 19.947 52.822 21.801V21.8ZM54.169 13.954C54.1662 12.9819 53.815 12.0431 53.179 11.308C52.8345 10.8471 52.3419 10.5187 51.784 10.378C51.2229 10.236 50.6303 10.2885 50.103 10.527C48.004 11.413 46.526 14.631 47.063 16.997C47.103 17.369 47.227 17.727 47.424 18.047C47.621 18.367 47.888 18.641 48.204 18.849C48.523 19.0575 48.8828 19.1957 49.2594 19.2543C49.6359 19.313 50.0207 19.2907 50.388 19.189C51.4919 18.8149 52.4524 18.1073 53.137 17.164C53.8129 16.2306 54.1743 15.1064 54.169 13.954ZM60.95 22.78C60.9204 22.9926 60.8487 23.1971 60.7391 23.3817C60.6296 23.5662 60.4844 23.7271 60.312 23.855C59.9601 24.1156 59.5208 24.2293 59.0867 24.1722C58.6525 24.1151 58.2575 23.8917 57.985 23.549C57.8525 23.3806 57.7552 23.1872 57.6991 22.9804C57.6429 22.7736 57.629 22.5576 57.6581 22.3453C57.6872 22.1329 57.7588 21.9287 57.8686 21.7446C57.9783 21.5606 58.124 21.4005 58.297 21.274C58.6487 21.0131 59.088 20.899 59.5222 20.9559C59.9564 21.0128 60.3514 21.2362 60.624 21.579C60.891 21.921 61.008 22.353 60.95 22.78ZM59.912 7.05198C60.139 6.71398 60.472 6.45598 60.861 6.31698C61.25 6.17898 61.674 6.16698 62.071 6.28298C62.474 6.38198 62.83 6.61298 63.08 6.93698C63.33 7.26198 63.457 7.66098 63.442 8.06698C63.3894 8.71832 63.2898 9.365 63.144 10.002C62.751 12.159 62.369 14.316 61.952 16.449C61.761 17.3 61.51 18.117 61.236 18.979C61.141 19.249 60.981 19.493 60.771 19.691C60.5699 19.9151 60.2929 20.0567 59.9935 20.0885C59.6941 20.1202 59.3936 20.0399 59.15 19.863C58.9905 19.746 58.8632 19.5905 58.78 19.411C58.6381 19.0909 58.561 18.746 58.553 18.396C58.553 16.951 58.553 15.493 58.649 14.036C58.811 11.956 59.129 9.89098 59.602 7.85598C59.658 7.58398 59.763 7.32398 59.912 7.08698V7.05198Z" fill="black"/>
<path fill-rule="evenodd" clip-rule="evenodd" d="M6.423 32.149C6.283 32.456 6.243 32.799 6.313 33.129C6.358 33.563 6.459 33.99 6.612 34.401C6.802 34.904 7.017 35.401 7.28 36.014L7.47 36.457C7.826 37.287 8.272 38.348 8.867 39.884C9.035 40.32 9.184 40.76 9.335 41.203L9.519 41.741C9.743 42.381 10.129 42.955 10.639 43.411C10.856 43.661 11.144 43.843 11.467 43.934C11.796 44.027 12.145 44.021 12.471 43.917C12.796 43.813 13.082 43.616 13.291 43.351C13.496 43.091 13.618 42.778 13.641 42.451C13.7746 41.8135 13.7296 41.1516 13.511 40.538C13.1614 39.5046 12.7602 38.4893 12.309 37.496L12.307 37.492C11.5562 35.9248 10.7838 34.3679 9.99 32.822L9.984 32.812C9.74862 32.4057 9.44404 32.0435 9.084 31.742C8.84252 31.4687 8.51457 31.2865 8.15492 31.2259C7.79528 31.1653 7.42573 31.2299 7.108 31.409C6.806 31.579 6.566 31.837 6.423 32.149ZM17.906 28.299C16.7261 28.0002 15.4961 27.9566 14.298 28.171C13.371 28.261 12.458 28.47 11.825 28.884C11.503 29.095 11.242 29.366 11.097 29.71C10.951 30.056 10.933 30.452 11.052 30.893C11.27 31.701 11.553 32.486 11.836 33.269L11.881 33.396L11.882 33.399C12.732 35.673 13.589 37.939 14.454 40.199C14.555 40.555 14.698 40.898 14.88 41.222L14.883 41.228C15.123 41.63 15.431 41.99 15.793 42.292C15.9776 42.4592 16.2034 42.5741 16.4472 42.6249C16.6911 42.6757 16.944 42.6606 17.18 42.581C17.417 42.501 17.628 42.359 17.788 42.169C17.945 41.983 18.048 41.759 18.086 41.521C18.2428 40.8727 18.1928 40.1915 17.943 39.573C17.865 39.365 17.803 39.152 17.739 38.927L17.673 38.699C19.653 37.942 21.761 36.924 22.502 34.556C22.792 33.738 22.816 32.852 22.572 32.019C22.3234 31.1813 21.8192 30.4422 21.13 29.905C20.1834 29.144 19.0837 28.5962 17.906 28.299ZM14.638 31.203L14.756 31.173C16.0432 30.9742 17.3593 31.2374 18.471 31.916C18.958 32.247 19.158 32.616 19.192 32.97C19.228 33.335 19.092 33.73 18.82 34.11C18.304 34.828 17.364 35.403 16.515 35.51C15.881 34.078 15.2554 32.6423 14.638 31.203Z" fill="black"/>
<path d="M25.765 25.747C27.168 25.113 28.907 25.004 30.268 25.45C30.611 25.547 30.908 25.758 31.109 26.047C31.309 26.334 31.401 26.679 31.37 27.024C31.368 27.2487 31.3117 27.4696 31.206 27.668C31.0974 27.8715 30.9413 28.0457 30.751 28.176C30.5588 28.308 30.338 28.3924 30.1068 28.4225C29.8756 28.4526 29.6406 28.4274 29.421 28.349L29.404 28.343L29.388 28.335C29.2755 28.2774 29.1562 28.2341 29.033 28.206L29.025 28.205C28.068 27.956 27.165 28.368 26.835 28.875C26.678 29.115 26.659 29.359 26.79 29.581C26.93 29.818 27.274 30.084 27.97 30.274C28.162 30.325 28.358 30.375 28.557 30.425C29.107 30.565 29.68 30.71 30.233 30.91L30.235 30.911C32.788 31.861 33.739 33.827 33.413 35.677C33.091 37.507 31.529 39.171 29.179 39.564C28.3237 39.7491 27.4354 39.713 26.598 39.459C25.7628 39.2066 25.0073 38.7422 24.405 38.111L24.39 38.095C24.2018 37.8593 24.0737 37.5813 24.017 37.285C23.9651 37.018 23.9926 36.7416 24.096 36.49C24.198 36.24 24.372 36.023 24.595 35.865C24.8326 35.6862 25.1164 35.5792 25.4129 35.5567C25.7094 35.5342 26.0062 35.5971 26.268 35.738C26.528 35.861 26.771 36.018 26.988 36.205L26.992 36.208C27.377 36.552 27.842 36.641 28.288 36.558C28.7422 36.4706 29.1507 36.225 29.441 35.865C29.713 35.519 29.821 35.109 29.692 34.711C29.562 34.31 29.17 33.861 28.308 33.485C28.0785 33.3927 27.8446 33.3119 27.607 33.243L27.407 33.183C27.227 33.13 27.043 33.075 26.862 33.014L26.49 32.894C26.155 32.788 25.829 32.684 25.514 32.544C24.8336 32.319 24.2431 31.882 23.829 31.297C23.4181 30.7158 23.2104 30.0152 23.238 29.304C23.24 27.575 24.353 26.384 25.765 25.747ZM43.562 25.563C43.2891 25.4328 42.9885 25.3712 42.6863 25.3834C42.3842 25.3956 42.0896 25.4812 41.828 25.633C41.57 25.783 41.353 25.993 41.198 26.246C41.0565 26.4572 40.9583 26.6943 40.909 26.9437C40.8597 27.1931 40.8604 27.4498 40.911 27.699C40.962 28.018 41.018 28.329 41.074 28.635C41.166 29.142 41.255 29.637 41.314 30.142L41.316 30.155C41.45 30.948 41.521 31.749 41.527 32.552V32.563C41.5717 33.4332 41.2692 34.2856 40.686 34.933L40.676 34.945C40.486 35.185 40.231 35.366 39.941 35.472C39.6506 35.5766 39.3372 35.6005 39.0342 35.5409C38.7313 35.4814 38.4502 35.3408 38.221 35.134C37.9959 34.9284 37.833 34.6636 37.751 34.37C37.5769 33.755 37.4759 33.1216 37.45 32.483L37.747 27.857L37.762 27.672C37.772 27.532 37.785 27.388 37.789 27.255C37.8007 27.0571 37.7852 26.8586 37.743 26.665C37.6964 26.4601 37.5923 26.2728 37.443 26.125C37.2594 25.9563 37.0367 25.8361 36.795 25.775C36.304 25.635 35.888 25.64 35.542 25.784C35.195 25.927 34.958 26.194 34.79 26.502C34.623 26.808 34.516 27.17 34.435 27.532C34.375 27.801 34.327 28.083 34.281 28.352L34.234 28.624V28.626C33.988 30.0991 33.9145 31.5959 34.015 33.086C34.035 33.891 34.205 34.686 34.522 35.429C34.8824 36.3939 35.5284 37.2259 36.374 37.814C37.2299 38.4101 38.2441 38.7374 39.287 38.754C40.3306 38.772 41.356 38.4785 42.232 37.911C43.0977 37.3511 43.7723 36.5408 44.166 35.588C44.711 34.38 44.966 33.067 44.914 31.748C44.882 30.785 44.828 29.815 44.775 28.85C44.749 28.376 44.723 27.904 44.699 27.434C44.6867 26.9616 44.5277 26.5048 44.244 26.127C44.0667 25.8856 43.8324 25.6918 43.562 25.563ZM53.196 32.817C53.169 32.852 53.139 32.887 53.109 32.924C52.8905 31.6763 52.6798 30.4273 52.477 29.177L52.255 27.828L52.246 27.778L52.219 27.735C52.168 27.653 52.163 27.573 52.163 27.403V27.383L52.16 27.363C52.1033 27.0096 51.94 26.682 51.692 26.424C51.444 26.164 51.122 25.984 50.768 25.906C50.4142 25.8207 50.0434 25.8394 49.7 25.96C49.358 26.08 49.06 26.296 48.843 26.581C48.663 26.8 48.514 27.043 48.403 27.301C48.152 27.861 47.898 28.42 47.643 28.981L47.639 28.991C47.004 30.392 46.365 31.803 45.744 33.225L45.742 33.229C45.362 34.151 45.047 35.123 44.733 36.091L44.545 36.671C44.432 36.976 44.382 37.301 44.399 37.625C44.379 37.915 44.449 38.205 44.603 38.455C44.7693 38.7184 45.0143 38.9229 45.3032 39.0396C45.5921 39.1562 45.9104 39.1791 46.213 39.105C46.525 39.028 46.803 38.852 47.002 38.604C47.2554 38.2989 47.4734 37.9661 47.652 37.612C48.174 36.5591 48.684 35.5004 49.182 34.436C49.375 34.026 49.562 33.659 49.777 33.259L49.822 33.404C50.0473 34.3714 50.4261 35.2964 50.944 36.144C51.042 36.324 51.179 36.482 51.344 36.606C51.5131 36.7325 51.7074 36.8212 51.9138 36.8659C52.1202 36.9105 52.3337 36.9102 52.54 36.865C52.746 36.821 52.94 36.733 53.108 36.608L53.441 36.364L56.023 34.238L55.871 35.189C55.661 36.497 55.453 37.794 55.232 39.091C55.0872 39.6653 55.0872 40.2666 55.232 40.841C55.295 41.165 55.455 41.463 55.692 41.697C55.9342 41.9328 56.2403 42.0925 56.5722 42.1563C56.9042 42.2201 57.2476 42.1852 57.56 42.056C57.868 41.928 58.13 41.713 58.313 41.44C58.739 40.923 59.004 40.298 59.077 39.638C59.187 38.706 59.31 37.762 59.434 36.818C59.577 35.73 59.72 34.642 59.84 33.575V33.572C59.956 32.404 60.013 31.232 60.009 30.058C60.034 29.688 59.939 29.318 59.739 29.002C59.5349 28.6834 59.2358 28.4371 58.884 28.298C58.5154 28.1346 58.1047 28.0912 57.71 28.174C57.3197 28.2548 56.9648 28.4567 56.696 28.751C56.22 29.181 55.773 29.642 55.359 30.131L55.356 30.134C54.9031 30.6884 54.4538 31.2458 54.008 31.806C53.736 32.146 53.465 32.484 53.196 32.817Z" fill="black"/>
</g>
<defs>
<clipPath id="clip0_13_94">
<rect width="70" height="44" fill="white"/>
</clipPath>
</defs>
</svg>
